<svg xmlns="http://www.w3.org/2000/svg" width="48" height="48" viewBox="0 0 48 48">
    <g fill="none" fill-rule="evenodd">
        <path d="M0 0H48V48H0z"/>
        <g stroke="#FFF" stroke-linecap="round" stroke-linejoin="round" stroke-width="3">
            <path d="M24.5 25L24.5 19 15.5 19 29.5 4 43.5 19 34.5 19 34.5 25" transform="translate(4 9.5) rotate(90 29.5 14.5)"/>
            <path d="M11 7.5L11 11.5" transform="translate(4 9.5) rotate(90 11 9.5)"/>
            <path d="M11 17.5L11 21.5" transform="translate(4 9.5) rotate(90 11 19.5)"/>
            <path d="M1.5 8L1.5 11" transform="translate(4 9.5) rotate(90 1.5 9.5)"/>
            <path d="M1.5 18L1.5 21" transform="translate(4 9.5) rotate(90 1.5 19.5)"/>
        </g>
    </g>
</svg>
