<svg xmlns="http://www.w3.org/2000/svg" width="24" height="24" viewBox="0 0 24 24">
    <g fill="none" fill-rule="evenodd">
        <g>
            <g transform="translate(-288 -40) translate(288 40)">
                <circle cx="12" cy="12" r="12" fill="#34B4A9"/>
                <path fill="#FFF" stroke="#FFF" stroke-width=".5" d="M17.991 15.44c-.1-.4-.374-.736-.746-.917-.243-.143-.612-.38-.969-.61-.334-.215-.65-.419-.85-.536-.607-.357-1.858.3-2.148.462h0c-.236 0-1.167-.622-1.83-1.286-.664-.665-1.288-1.596-1.287-1.83.163-.292.82-1.541.463-2.148-.119-.201-.324-.519-.54-.857-.229-.354-.465-.72-.607-.963-.18-.372-.516-.645-.917-.746-.358-.044-.715.077-.972.33-.539.453-1.8 1.515-1.557 2.62.283 1.292 1.766 3.897 3.44 5.57 1.673 1.674 4.278 3.157 5.57 3.44.093.02.189.031.285.031 1 0 1.922-1.095 2.336-1.587.252-.258.373-.615.33-.973zm-.725.639c-.36.427-1.314 1.56-2.114 1.384-1.078-.236-3.622-1.607-5.315-3.3-1.694-1.693-3.064-4.236-3.3-5.315-.176-.8.958-1.754 1.384-2.113.13-.128.3-.206.481-.221.024 0 .047.002.07.006.255.043.459.33.557.498.148.251.387.622.618.98.214.333.416.647.53.84.127.217-.087.956-.477 1.647-.37.654 1.363 2.416 1.38 2.434.018.018 1.782 1.75 2.435 1.381.69-.39 1.43-.604 1.648-.476.19.112.502.313.833.525.36.233.734.473.986.622.167.099.455.302.498.558.013.206-.066.407-.215.55h0zm-4.11-9.635c0-.143.116-.259.26-.259 2.299.003 4.162 1.866 4.164 4.165 0 .143-.116.26-.259.26-.143 0-.26-.117-.26-.26-.001-2.013-1.633-3.644-3.646-3.646-.143 0-.259-.116-.259-.26zm0 2.074c0-.143.116-.26.26-.26 1.154.002 2.09.938 2.09 2.092 0 .143-.115.26-.258.26-.143 0-.26-.117-.26-.26 0-.868-.704-1.572-1.573-1.573-.143 0-.259-.116-.259-.26z"/>
            </g>
        </g>
    </g>
</svg>
