<svg xmlns="http://www.w3.org/2000/svg" width="64" height="64" viewBox="0 0 64 64">
    <g fill="none" fill-rule="evenodd">
        <path d="M0 0H64V64H0z"/>
        <path fill="#FFF" fill-rule="nonzero" d="M52.874 18.616l-10.59-4.402c-.405-.168-.866-.123-1.23.12-.333.22-.535.579-.57.97l-5.218-1.329v-.955c0-1.408-1.146-2.55-2.559-2.55-.378 0-.685-.306-.685-.683v-1.62c0-1.266 1.034-2.3 2.307-2.3 1.278 0 2.312 1.034 2.312 2.3 0 .518.42.933.937.933.517 0 .936-.415.936-.934C38.514 5.87 36.637 4 34.33 4c-2.304 0-4.18 1.87-4.18 4.166v1.62c0 1.404 1.146 2.55 2.558 2.55.379 0 .686.307.686.684v.922l-5.22 1.329c-.04-.377-.239-.724-.565-.937-.363-.243-.824-.288-1.229-.12l-10.59 4.402c-3.114 1.295-5.126 4.3-5.126 7.66v9.719c0 .72.588 1.306 1.311 1.306h7.778v4.271h2.622V27.128c0-.72-.584-1.307-1.31-1.307-.724 0-1.312.586-1.312 1.307v7.56h-6.467v-8.411c0-2.3 1.38-4.36 3.51-5.25l8.809-3.658c.393 4.45 4.158 7.956 8.725 7.956 4.571 0 8.336-3.506 8.73-7.956l8.808 3.659c2.131.888 3.51 2.95 3.51 5.249v8.788h-6.376v-7.937c0-.72-.589-1.307-1.312-1.307-.727 0-1.311.586-1.311 1.307v30.259H31.773c.395-.718.622-1.54.622-2.414 0-1.476-.645-2.8-1.664-3.72 1.019-.922 1.664-2.246 1.664-3.722 0-2.772-2.264-5.027-5.045-5.027H11.045C8.263 42.504 6 44.76 6 47.531c0 1.476.645 2.8 1.664 3.721C6.645 52.172 6 53.497 6 54.972 6 57.746 8.263 60 11.045 60H47.69c.723 0 1.311-.586 1.311-1.307V37.678h7.688c.723 0 1.311-.586 1.311-1.306V26.277c0-3.36-2.012-6.366-5.126-7.661zM34.33 22.711c-3.184 0-5.807-2.43-6.106-5.525l6.043-1.538 6.17 1.572c-.31 3.08-2.93 5.491-6.107 5.491zM11.045 45.117H27.35c1.336 0 2.423 1.083 2.423 2.414 0 1.332-1.087 2.414-2.423 2.414H11.045c-1.336 0-2.422-1.082-2.422-2.414 0-1.33 1.086-2.414 2.422-2.414zm-2.422 9.856c0-1.331 1.086-2.414 2.422-2.414H27.35c1.336 0 2.423 1.082 2.423 2.414 0 1.331-1.087 2.414-2.423 2.414H11.045c-1.336 0-2.422-1.083-2.422-2.414zm3.396-42.299l2.268 1.24 1.24 2.267c.163.299.477.485.818.485.342 0 .656-.186.82-.485l1.24-2.267 2.267-1.24c.3-.163.486-.477.486-.819 0-.34-.186-.655-.486-.819l-2.268-1.24-1.24-2.266c-.163-.299-.477-.485-.819-.485-.34 0-.655.186-.818.485l-1.24 2.267-2.268 1.24c-.3.163-.486.477-.486.819 0 .34.186.655.486.818zm3.403-1.37c.156-.086.285-.214.37-.371l.553-1.01.553 1.01c.085.156.215.285.371.37l1.01.553-1.01.551c-.156.086-.286.215-.371.372l-.553 1.01-.552-1.01c-.086-.157-.214-.286-.371-.372l-1.01-.551 1.01-.552zm20.225 28.019l1.702 3.11c.164.3.478.486.819.486.341 0 .655-.186.819-.486l1.702-3.11 3.111-1.701c.3-.163.486-.478.486-.82 0-.34-.186-.654-.486-.818l-3.111-1.701-1.702-3.11c-.164-.3-.478-.486-.82-.486-.34 0-.654.187-.818.486l-1.702 3.11-3.112 1.7c-.299.164-.485.479-.485.82 0 .341.186.655.485.819l3.112 1.7zm1.135-3.533c.157-.085.286-.214.372-.371l1.014-1.854 1.014 1.854c.086.156.215.285.371.371l1.854 1.013-1.854 1.013c-.156.086-.285.214-.37.371l-1.015 1.854-1.014-1.854c-.086-.156-.215-.285-.372-.37l-1.853-1.014 1.853-1.013zM18.324 48.465h7.38c.516 0 .933-.418.933-.934 0-.515-.417-.933-.933-.933h-7.38c-.515 0-.933.418-.933.933 0 .516.418.934.933.934zm-5.277 0h1.527c.516 0 .933-.418.933-.934 0-.515-.417-.933-.933-.933h-1.527c-.515 0-.933.418-.933.933 0 .516.418.934.933.934zm12.657 7.441c.516 0 .933-.418.933-.933 0-.516-.417-.934-.933-.934H13.047c-.515 0-.933.418-.933.934 0 .515.418.933.933.933h12.657z"/>
    </g>
</svg>
