<svg xmlns="http://www.w3.org/2000/svg" width="64" height="64" viewBox="0 0 64 64">
    <g fill="none" fill-rule="evenodd">
        <path d="M0 0H64V64H0z"/>
        <path fill="#FFF" fill-rule="nonzero" d="M53.972 23.857c1.16.004 2.1.958 2.103 2.136v.271c-.002.98-.662 1.834-1.6 2.068l2.346 7.683h.455c1.228 0 2.224 1.011 2.224 2.259v9.03h-2.83C56.26 50.006 53.97 52 51.277 52s-4.982-1.994-5.392-4.696h-4.849V23.857h12.935zM39.274 17.18c.502 0 .909.414.909.924V46.33c0 .51-.407.924-.91.924H28.613c-.41 2.701-2.7 4.696-5.392 4.696s-4.981-1.995-5.391-4.696h-5.134c-.502 0-.91-.414-.91-.924V23.86H5.41c-.502 0-.909-.413-.909-.923s.407-.924.91-.924h6.376v-1.914h-1.328c-.502 0-.909-.413-.909-.923s.407-.924.91-.924h1.327v-.147c0-.51.407-.924.909-.924h26.579zM51.28 42.706c-2.009 0-3.637 1.653-3.637 3.693-.001.98.381 1.922 1.063 2.615.682.694 1.608 1.084 2.574 1.084v-.006c2.008 0 3.637-1.653 3.637-3.693s-1.629-3.693-3.637-3.693zm-28.033-.019c-2.009 0-3.637 1.654-3.637 3.693-.007.98.37 1.922 1.048 2.62.677.697 1.6 1.092 2.564 1.098l.025-.024c2.008 0 3.636-1.654 3.636-3.694s-1.628-3.693-3.636-3.693zm34.028-4.826H42.88v7.59h3v-.105c0-.037 0-.147.049-.221.048-.074.048-.197.073-.29l.084-.203c.03-.092.067-.19.103-.283l.085-.203c.043-.092.085-.185.134-.277l.097-.185.163-.277.097-.16c.073-.11.158-.221.243-.326l.06-.08c.105-.131.217-.256.334-.375l.115-.111c.085-.08.164-.16.254-.234l.152-.123.242-.185.2-.11.225-.148.188-.105.26-.13.2-.086.28-.104.205-.068.303-.08.2-.043.346-.055h1.406l.345.055.2.05.304.08.2.067.278.105.2.086.267.129.188.105.255.154.175.117.249.184.151.123c.091.074.17.154.255.234l.115.105c.117.119.228.244.333.375l.061.08c.085.105.164.216.243.327l.097.16c.054.092.115.184.163.277l.097.184c.043.093.091.179.127.271l.085.203c.037.093.067.185.103.277l.067.216c0 .092.049.19.073.289.024.099.036.148.048.228.012.08 0 .068 0 .104h1.025v-7.202c-.004-.225-.185-.406-.406-.406zM21.738 19.058h-8.134l.024 26.375h4.243v-.105c0-.037 0-.148.049-.222.048-.074.048-.197.072-.29l.037-.184c.03-.092.066-.19.103-.283l.085-.203c.042-.092.085-.185.133-.277l.097-.185.164-.277.097-.16c.072-.11.157-.221.242-.326l.06-.08c.106-.131.217-.256.334-.375l.115-.111c.085-.08.164-.16.255-.234l.151-.123.243-.185.176-.117.248-.141.188-.105.26-.13.2-.086.28-.104.236-.074.303-.08.17-.037.345-.055h1.406l.346.055.2.05.303.08.206.067.279.105.2.086.26.129.194.105.249.154.176.117.242.184.158.123.248.228.121.117c.118.119.229.242.334.37l.067.086c.078.104.157.209.236.32l.103.16c.055.092.11.178.164.27l.097.191c.042.086.09.179.127.271l.085.203c.036.093.066.185.097.277l.066.216c0 .092.049.19.073.289.024.099.037.148.049.228.012.08 0 .068 0 .104h9.77V19.09h-8.146v12.37c0 .3-.144.58-.385.752-.241.173-.55.216-.827.116l-3.03-1.132-3.031 1.132c-.278.1-.587.057-.827-.116-.241-.172-.385-.452-.386-.752V19.058zm13.42 21.764c.502 0 .91.413.91.923s-.408.924-.91.924h-3.764c-.502 0-.91-.414-.91-.924s.408-.923.91-.923h3.764zm1.23-2.875c.502 0 .91.414.91.924s-.408.923-.91.923h-6.206c-.503 0-.91-.413-.91-.923s.407-.924.91-.924h6.206zm16.22-9.547H42.91l-.03 7.602h12.038l-2.31-7.602zm-29.015-9.36V30.11l2.103-.794c.196-.07.41-.07.606 0l2.104.794V19.058l-4.813-.019zm30.38 6.658H42.88v.85h11.092c.076 0 .148-.031.202-.085.053-.055.083-.128.083-.205v-.27c0-.16-.128-.29-.285-.29zM10.457 12c.502 0 .91.413.91.923s-.408.924-.91.924H7.61c-.502 0-.909-.414-.909-.924S7.107 12 7.61 12h2.848zm12.699 0c.502 0 .909.413.909.923s-.407.924-.91.924h-9.564c-.502 0-.91-.414-.91-.924s.408-.923.91-.923h9.565z"/>
    </g>
</svg>
