<svg xmlns="http://www.w3.org/2000/svg" width="80" height="80" viewBox="0 0 80 80">
    <g fill="none" fill-rule="evenodd">
        <path d="M0 0H80V80H0z"/>
        <g>
            <path fill="#EBF3FF" d="M68.527 7H15.473C11.353 7 8 10.35 8 14.468v39.064C8 57.65 11.353 61 15.473 61h53.054C72.647 61 76 57.65 76 53.532V14.468C76 10.35 72.647 7 68.527 7z" transform="translate(4 12)"/>
            <path fill="#267FFD" d="M64.087 53.217H7.913C5.755 53.217 4 51.461 4 49.304v-9.826h12.783c.668 0 1.293-.334 1.664-.89l3.804-5.707 4.5 11.253c.277.69.912 1.17 1.65 1.246.739.07 1.46-.263 1.872-.88l9.778-14.667 7.416 17.303c.289.675.924 1.137 1.655 1.203.062.006.122.01.183.01.665 0 1.29-.332 1.664-.892l5.319-7.979H68v9.826c0 2.157-1.756 3.913-3.913 3.913zM7.913 4h56.174C66.244 4 68 5.755 68 7.913v6.87H4v-6.87C4 5.755 5.755 4 7.913 4zM4 18.782h64v16.696H55.218c-.67 0-1.293.334-1.664.89l-3.865 5.798-7.416-17.302c-.29-.674-.924-1.136-1.656-1.204-.74-.068-1.44.272-1.846.883l-9.717 14.575-4.501-11.252c-.276-.69-.911-1.17-1.65-1.247-.74-.076-1.46.262-1.871.88l-5.32 7.98H4V18.781zM64.087 0H7.913C3.55 0 0 3.55 0 7.913v41.391c0 4.363 3.55 7.913 7.913 7.913h56.174c4.363 0 7.913-3.55 7.913-7.913V7.914C72 3.55 68.45 0 64.087 0zm-51.74 8.87c.289 0 .523.234.523.522 0 .288-.234.52-.522.52-.288 0-.521-.232-.521-.52 0-.288.233-.522.52-.522m0 4c1.919 0 3.48-1.56 3.48-3.478 0-1.918-1.561-3.48-3.48-3.48-1.917 0-3.477 1.562-3.477 3.48s1.56 3.478 3.478 3.478m8.87-4c.287 0 .521.234.521.522 0 .288-.234.52-.522.52-.288 0-.52-.232-.52-.52 0-.288.232-.522.52-.522m0 4c1.918 0 3.48-1.56 3.48-3.478 0-1.918-1.562-3.48-3.48-3.48s-3.478 1.562-3.478 3.48 1.56 3.478 3.478 3.478m8.87-4c.288 0 .522.234.522.522 0 .288-.234.52-.522.52-.288 0-.521-.232-.521-.52 0-.288.233-.522.52-.522m0 4c1.919 0 3.48-1.56 3.48-3.478 0-1.918-1.561-3.48-3.48-3.48-1.917 0-3.477 1.562-3.477 3.48s1.56 3.478 3.478 3.478" transform="translate(4 12)"/>
        </g>
    </g>
</svg>
