<svg xmlns="http://www.w3.org/2000/svg" width="80" height="80" viewBox="0 0 80 80">
    <g fill="none" fill-rule="evenodd">
        <path d="M0 0H80V80H0z"/>
        <path fill="#E0F5F3" d="M76.331 43.209V38.38c0-2.447-2.007-4.438-4.475-4.438h-3.532v-3.504c0-2.447-2.008-4.439-4.474-4.439h-8.008c-2.467 0-4.474 1.992-4.474 4.439v14.094h-9.735V30.439c0-2.447-2.008-4.439-4.475-4.439h-8.007c-2.467 0-4.475 1.992-4.475 4.439v3.504h-3.532c-2.468 0-4.474 1.99-4.474 4.438v4.828h-.864c-.997 0-1.806.802-1.806 1.79 0 .99.809 1.792 1.806 1.792h.864v4.828c0 2.446 2.006 4.438 4.474 4.438h3.532v3.504c0 2.448 2.008 4.439 4.475 4.439h8.007c2.467 0 4.475-1.99 4.475-4.439V48.115h9.735v11.446c0 2.448 2.007 4.439 4.474 4.439h8.008c2.466 0 4.474-1.99 4.474-4.439v-3.504h3.532c2.468 0 4.475-1.992 4.475-4.438v-4.828h.863C78.192 46.79 79 45.989 79 45c0-.99-.808-1.791-1.806-1.791h-.863z"/>
        <path fill="#34B4A9" stroke="#34B4A9" stroke-width=".5" d="M69.044 47.316c0 .521-.43.946-.957.946h-3.913V31.738h3.913c.527 0 .957.425.957.946v14.632zm-8.87 8.778c0 .521-.429.947-.956.947h-8.87c-.528 0-.956-.426-.956-.947V23.906c0-.522.428-.947.956-.947h8.87c.527 0 .956.425.956.947v32.188zm-29.565 0c0 .521-.429.947-.957.947h-8.869c-.528 0-.957-.426-.957-.947V23.906c0-.522.429-.947.957-.947h8.869c.528 0 .957.425.957.947v32.188zm-18.696-7.832c-.527 0-.956-.425-.956-.946V32.684c0-.521.429-.946.956-.946h3.913v16.524h-3.913zM74 38.02h-.956v-5.336c0-2.705-2.224-4.905-4.957-4.905h-3.913v-3.873c0-2.705-2.224-4.906-4.956-4.906h-8.87c-2.733 0-4.956 2.201-4.956 4.906v15.578H34.609V23.906c0-2.705-2.224-4.906-4.957-4.906h-8.869c-2.733 0-4.957 2.201-4.957 4.906v3.873h-3.913c-2.733 0-4.956 2.2-4.956 4.905v5.336H6c-1.104 0-2 .887-2 1.98s.896 1.979 2 1.979h.957v5.337c0 2.704 2.223 4.905 4.956 4.905h3.913v3.873C15.826 58.8 18.05 61 20.783 61h8.869c2.733 0 4.957-2.2 4.957-4.906V43.443h10.783v12.65c0 2.707 2.223 4.907 4.956 4.907h8.87c2.732 0 4.956-2.2 4.956-4.906V52.22h3.913c2.733 0 4.957-2.201 4.957-4.905v-5.337H74c1.105 0 2-.886 2-1.98 0-1.092-.895-1.979-2-1.979h0z"/>
    </g>
</svg>
