<svg xmlns="http://www.w3.org/2000/svg" width="80" height="80" viewBox="0 0 80 80">
    <g fill="none" fill-rule="evenodd">
        <path d="M0 0H80V80H0z"/>
        <path fill="#E0F5F3" d="M78.988 58.705c-.004-.05-.007-.098-.015-.146-.015-.095-.037-.184-.065-.272-.01-.028-.01-.058-.02-.085L67.172 26.967V20.72c0-3.154-2.565-5.72-5.719-5.72H32.546c-3.154 0-5.72 2.566-5.72 5.72v6.247L15.113 58.202c-.009.026-.01.054-.019.08-.03.09-.052.18-.067.277-.007.049-.011.097-.015.147-.002.04-.012.078-.012.12v11.828c0 3.154 2.566 5.719 5.72 5.719h2.164v.85c0 .981.796 1.777 1.778 1.777s1.778-.796 1.778-1.777v-.85h41.12v.85c0 .981.796 1.777 1.779 1.777.981 0 1.777-.796 1.777-1.777v-.85h2.164c3.154 0 5.72-2.565 5.72-5.72V58.827c0-.042-.01-.08-.012-.12z"/>
        <path fill="#34B4A9" stroke="#34B4A9" stroke-linejoin="round" d="M72 66.61c0 1.342-1.092 2.434-2.435 2.434h-59.13C9.092 69.044 8 67.952 8 66.61V55.304h64V66.61zM16.256 31.652h47.488l7.37 19.652H8.886l7.37-19.652zM23.739 8h32.522c1.343 0 2.434 1.092 2.434 2.436v5.39h-2.964l-.529-1.589c-.272-.817-1.036-1.368-1.897-1.368H26.696c-.861 0-1.625.551-1.898 1.368l-.529 1.59h-2.965v-5.39C21.304 9.091 22.396 8 23.739 8h0zm29.747 13.74H26.514l1.623-4.87h23.726l1.623 4.87zM20.69 19.825h2.246l-1.094 3.281c-.203.61-.101 1.28.275 1.801.376.522.979.831 1.622.831h32.522c.642 0 1.246-.309 1.622-.83.376-.522.478-1.193.275-1.802l-1.094-3.28h2.246l2.934 7.825H17.756l2.934-7.826zm55.296 33.342c-.004-.056-.007-.11-.016-.165-.017-.106-.042-.207-.074-.306-.01-.03-.011-.065-.023-.095l-13.178-35.14v-7.026C62.695 6.887 59.809 4 56.261 4H23.739c-3.548 0-6.435 2.887-6.435 6.436v7.028L4.127 52.602c-.01.03-.012.06-.021.09-.033.1-.059.203-.076.311-.008.055-.012.11-.016.166-.003.045-.014.088-.014.135V66.61c0 3.548 2.887 6.434 6.435 6.434h2.435V74c0 1.104.895 2 2 2 1.104 0 2-.896 2-2v-.956h46.261V74c0 1.104.895 2 2 2 1.104 0 2-.896 2-2v-.956h2.434c3.548 0 6.435-2.886 6.435-6.434V53.304c0-.047-.011-.09-.014-.136h0z"/>
    </g>
</svg>
