<svg xmlns="http://www.w3.org/2000/svg" width="80" height="80" viewBox="0 0 80 80">
    <g fill="none" fill-rule="evenodd">
        <path d="M0 0H80V80H0z"/>
        <g fill="#535C65">
            <path d="M28.497 57.001c-1.205 0-2.418-.295-3.517-.879-.227-.121-.447-.258-.66-.394-.393-.265-.765-.568-1.098-.91l-2.895-2.902c-.698-.697-1.615-1.076-2.6-1.076h-4.092c-4.116 0-7.466-3.35-7.466-7.466v-4.092c0-.97-.394-1.91-1.076-2.6l-2.895-2.895c-2.91-2.91-2.91-7.647 0-10.558l2.895-2.895c.682-.682 1.076-1.63 1.076-2.6v-4.092c0-4.115 3.35-7.465 7.466-7.465h4.092c.978 0 1.902-.38 2.6-1.076l2.895-2.896c2.91-2.91 7.647-2.91 10.55 0l2.895 2.896c.697.697 1.614 1.076 2.6 1.076h4.092c4.116 0 7.465 3.35 7.465 7.465v4.093c0 .977.38 1.902 1.077 2.6l2.895 2.894c2.91 2.91 2.91 7.648 0 10.558L51.9 36.682c-.698.69-1.077 1.614-1.077 2.6v4.092c0 4.116-3.35 7.466-7.465 7.466h-4.092c-.986 0-1.903.379-2.6 1.076l-2.895 2.895c-.341.341-.713.644-1.107.91-.204.136-.432.272-.66.394-1.09.59-2.303.886-3.508.886zM13.627 9.974c-2.024 0-3.676 1.645-3.676 3.676v4.092c0 1.994-.773 3.866-2.183 5.275l-2.895 2.895c-1.432 1.433-1.432 3.76 0 5.192l2.895 2.895c1.41 1.41 2.183 3.282 2.183 5.275v4.093c0 2.023 1.645 3.676 3.676 3.676h4.093c1.993 0 3.865.773 5.275 2.182l2.895 2.895c.166.167.348.319.545.455.106.068.205.137.319.19 1.083.583 2.38.583 3.463 0 .114-.061.22-.122.319-.19.197-.136.386-.288.553-.455l2.895-2.895c1.41-1.41 3.282-2.182 5.275-2.182h4.093c2.023 0 3.675-1.645 3.675-3.676v-4.093c0-1.993.773-3.865 2.183-5.275l2.895-2.895c1.433-1.432 1.433-3.76 0-5.2L49.21 23.01c-1.41-1.41-2.183-3.282-2.183-5.275v-4.093c0-2.023-1.644-3.676-3.675-3.676h-4.093c-1.993 0-3.865-.773-5.275-2.19l-2.895-2.895c-.697-.697-1.614-1.076-2.6-1.076-.977 0-1.902.379-2.6 1.076l-2.894 2.895c-1.41 1.41-3.282 2.183-5.275 2.183h-4.093v.015z" transform="translate(11.5 4)"/>
            <path fill-rule="nonzero" stroke="#535C65" stroke-width=".7" d="M19.394 36c.436 0 .752-.086.947-.259.195-.172.293-.447.293-.825 0-.371-.096-.64-.288-.806-.192-.166-.51-.249-.952-.249h0-1.641v-7.285h1.64c.45 0 .769-.084.958-.254.188-.169.283-.442.283-.82 0-.384-.091-.658-.274-.82-.182-.163-.504-.244-.966-.244h0-5.801c-.45 0-.768.08-.957.244-.19.162-.283.436-.283.82 0 .378.096.651.288.82.192.17.51.254.952.254h1.64v7.285h-1.64c-.45 0-.768.082-.957.244-.19.163-.283.433-.283.811 0 .384.096.66.288.83.192.17.51.254.952.254h5.8zm9.248.303c1.517 0 2.682-.324 3.496-.972.813-.648 1.22-1.57 1.22-2.769 0-.97-.28-1.735-.84-2.294-.56-.56-1.464-.977-2.714-1.25l-.664-.137c-1.654-.345-2.48-.817-2.48-1.416 0-.423.18-.77.541-1.04.361-.27.835-.405 1.421-.405.469 0 .876.102 1.22.307.346.205.62.51.821.913l.078.176c.228.495.573.742 1.035.742.365 0 .624-.076.777-.23.153-.152.23-.42.23-.805h0v-.107l-.04-1.875c-.013-.417-.073-.695-.18-.835-.108-.14-.35-.21-.728-.21-.254 0-.443.039-.566.117-.124.078-.235.221-.332.43-.424-.183-.848-.32-1.275-.41-.426-.092-.86-.137-1.304-.137-1.328 0-2.41.353-3.247 1.06-.836.706-1.255 1.615-1.255 2.729 0 .866.245 1.548.733 2.046.488.498 1.364.913 2.627 1.245.26.071.615.16 1.064.263 1.504.359 2.256.886 2.256 1.582 0 .45-.166.798-.498 1.045-.332.248-.797.371-1.396.371-.658 0-1.213-.123-1.665-.37-.453-.248-.806-.622-1.06-1.124-.04-.078-.091-.192-.156-.341-.287-.612-.642-.918-1.065-.918-.397 0-.675.084-.835.253-.16.17-.239.47-.239.899h0v.107l.04 2.295c.006.397.09.674.253.83.163.157.45.235.86.235.24 0 .43-.038.566-.113.137-.074.257-.197.361-.366.436.163.887.283 1.353.362.465.078.994.117 1.587.117zm11.855 0c1.615 0 2.936-.57 3.965-1.71 1.029-1.139 1.543-2.603 1.543-4.394 0-1.777-.518-3.239-1.553-4.385-1.035-1.145-2.353-1.718-3.955-1.718-1.615 0-2.938.571-3.97 1.714-1.032 1.142-1.548 2.605-1.548 4.39 0 1.77.521 3.23 1.563 4.38 1.042 1.148 2.36 1.723 3.955 1.723zm0-2.246c-.833 0-1.49-.342-1.973-1.026-.481-.683-.722-1.627-.722-2.832 0-1.204.239-2.145.718-2.822.478-.677 1.137-1.016 1.977-1.016.846 0 1.509.339 1.987 1.016.479.677.718 1.618.718 2.822 0 1.211-.24 2.157-.723 2.837-.481.68-1.142 1.02-1.982 1.02z" transform="translate(11.5 4)"/>
            <path d="M20.524 71.992l-5.783-7.109-9.057 1.372 7.428-19.205h4.615c1.993 0 3.865.773 5.275 2.183l2.895 2.895c.167.167.349.318.546.455l1.25.841-7.17 18.568zm-4.207-11.179l3.024 3.722 3.79-9.807-2.804-2.812c-.698-.697-1.615-1.076-2.6-1.076h-2.016l-4.13 10.686 4.736-.713zM36.47 71.985l-7.177-18.553 1.25-.842c.197-.129.38-.28.546-.454l2.895-2.896c1.41-1.41 3.282-2.182 5.275-2.182h4.623l7.42 19.205-9.057-1.372-5.775 7.094zm-2.607-17.257l3.79 9.807 3.023-3.722 4.737.72-4.13-10.686h-2.016c-.986 0-1.903.38-2.6 1.076l-2.804 2.805z" transform="translate(11.5 4)"/>
        </g>
    </g>
</svg>
