<svg xmlns="http://www.w3.org/2000/svg" width="48" height="48" viewBox="0 0 48 48">
    <g fill="none" fill-rule="evenodd">
        <path fill="#535C65" stroke="#535C65" stroke-width=".5" d="M23.537 7.828c2.917 0 5.565 1.189 7.484 3.107 1.918 1.919 3.107 4.567 3.107 7.485 0 1.548-.34 3.096-.99 4.522l-.17.353-8.633 16.667-10.188-16.66c-.862-1.746-1.202-3.332-1.202-4.882 0-2.918 1.189-5.566 3.107-7.485 1.919-1.918 4.567-3.107 7.485-3.107zm.039 2.256c-2.293 0-4.376.938-5.887 2.449-1.51 1.51-2.449 3.594-2.449 5.887 0 1.363.303 2.652.909 3.826h0l7.388 14.322 7.615-14.666.144-.328c.409-.993.615-2.06.615-3.154 0-2.293-.938-4.376-2.449-5.887-1.51-1.51-3.594-2.449-5.886-2.449zm-.04 3.949c1.2 0 2.298.496 3.094 1.293.797.796 1.293 1.893 1.293 3.094 0 1.2-.496 2.297-1.293 3.093-.796.797-1.893 1.293-3.093 1.293s-2.298-.496-3.094-1.293c-.797-.796-1.293-1.893-1.293-3.093s.496-2.298 1.293-3.094c.796-.797 1.893-1.293 3.094-1.293zm0 2.256c-.589 0-1.117.241-1.5.624-.39.39-.63.926-.63 1.507 0 .589.241 1.118.625 1.5.389.39.925.63 1.506.63.58 0 1.116-.24 1.506-.63.383-.382.624-.911.624-1.5 0-.59-.241-1.119-.624-1.502-.39-.39-.926-.629-1.506-.629z"/>
    </g>
</svg>
