<svg xmlns="http://www.w3.org/2000/svg" width="48" height="48" viewBox="0 0 48 48">
    <g fill="none" fill-rule="evenodd">
        <path fill="#535C65" stroke="#535C65" stroke-width=".5" d="M11.116 38h25.768C38.602 38 40 36.58 40 34.835v-21.67C40 11.419 38.602 10 36.884 10H11.116C9.398 10 8 11.42 8 13.165v21.67C8 36.581 9.398 38 11.116 38zm0-25.932h25.768c.433 0 .82.266.99.657L24.04 21.329l-13.894-8.642c.177-.374.548-.619.97-.619zm25.766 23.864H11.116c-.595 0-1.08-.492-1.08-1.097V15.043l13.472 8.38c.321.199.742.199 1.063 0l13.392-8.331v19.743c0 .605-.484 1.097-1.08 1.097z"/>
    </g>
</svg>
