<svg xmlns="http://www.w3.org/2000/svg" width="80" height="80" viewBox="0 0 80 80">
    <g fill="none" fill-rule="evenodd">
        <path d="M0 0H80V80H0z"/>
        <g>
            <path fill="#EBF3FF" d="M40.68 9c.125 0 .247.013.367.037.076.015.146.042.217.066.043.014.087.021.129.038.074.032.143.074.212.113.035.02.072.035.106.057.087.06.168.127.244.2l.034.027 14.444 14.344c.266.255.456.586.53.962.009.043.008.09.013.133.01.074.024.146.024.227V36.69L56.997 40h4.23c2.795 0 5.534 1.095 7.566 3.017l.24.235 7.428 7.465c.345.347.539.818.539 1.308 0 .49-.194.962-.539 1.307l-5.52 5.551c-.719.723-1.883.723-2.602 0l-1.46-1.466V75.15c0 1.022-.822 1.85-1.84 1.85H42.96c-1.016 0-1.84-.828-1.84-1.85L41.119 73H8.849c-.97 0-1.766-.742-1.843-1.685L7 71.165v-60.33C7 9.822 7.828 9 8.849 9z" transform="translate(3 3)"/>
            <path fill="#267FFD" d="M37.423 7.15l8.588 8.59h-8.588V7.15zm19.884 26.455c3.076 0 6.088 1.247 8.262 3.423l7.86 7.858c.366.365.57.861.57 1.377s-.204 1.012-.57 1.376l-5.842 5.843c-.76.761-1.992.761-2.753 0l-1.545-1.544v18.667c0 1.075-.871 1.947-1.947 1.947H37.974c-1.075 0-1.948-.872-1.948-1.947V51.938l-1.544 1.544c-.76.761-1.994.761-2.753 0l-5.843-5.843c-.76-.76-.76-1.992 0-2.753l7.858-7.858c2.207-2.207 5.142-3.423 8.26-3.423zM42.125 37.5h-.12c-2.08 0-4.035.811-5.507 2.283l-6.48 6.481 3.088 3.088 3.49-3.49c.558-.559 1.396-.724 2.123-.424.727.302 1.202 1.012 1.202 1.8v21.421h19.474v-21.42c0-.789.474-1.499 1.202-1.8.728-.303 1.564-.137 2.122.422l3.492 3.491 3.088-3.088-6.483-6.48c-1.45-1.452-3.46-2.284-5.51-2.284h-.115c-.868 3.355-3.912 5.842-7.533 5.842-3.622 0-6.665-2.487-7.533-5.842zm-6.65-37c.131 0 .26.015.386.04.08.016.154.045.23.07.044.015.09.023.134.04.078.035.151.079.224.12.037.022.076.038.111.06.092.064.177.136.257.213.011.01.025.018.036.029L52.067 16.29c.28.27.48.622.558 1.02.01.046.008.095.014.142.01.078.025.155.025.236V29.88c0 1.075-.872 1.947-1.949 1.947-1.075 0-1.947-.872-1.947-1.947V19.635H35.475c-1.075 0-1.947-.872-1.947-1.947V4.395H3.894V64.51h27.01c1.075 0 1.947.87 1.947 1.947 0 1.075-.872 1.947-1.948 1.947H1.947C.872 68.404 0 67.532 0 66.457V2.447C0 1.372.872.5 1.947.5zM14.483 30.685c1.076 0 1.948.872 1.948 1.948v1.507c2.743.836 4.746 3.39 4.746 6.404 0 1.075-.872 1.947-1.947 1.947-1.076 0-1.948-.872-1.948-1.947 0-1.543-1.255-2.8-2.799-2.8-1.543 0-2.799 1.257-2.799 2.8s1.256 2.799 2.8 2.799c3.69 0 6.693 3.003 6.693 6.694 0 3.014-2.003 5.567-4.746 6.403v1.508c0 1.075-.872 1.947-1.948 1.947-1.075 0-1.947-.872-1.947-1.947v-1.508c-2.744-.836-4.747-3.389-4.747-6.403 0-1.075.872-1.947 1.947-1.947 1.076 0 1.948.872 1.948 1.947 0 1.543 1.256 2.8 2.8 2.8 1.543 0 2.798-1.257 2.798-2.8s-1.255-2.799-2.799-2.799c-3.69 0-6.694-3.003-6.694-6.694 0-3.014 2.003-5.568 4.747-6.404v-1.507c0-1.076.872-1.948 1.947-1.948zm38.528 6.815h-6.706c.676 1.16 1.918 1.948 3.353 1.948 1.435 0 2.677-.789 3.353-1.948zM23.369 20.947c1.075 0 1.947.872 1.947 1.948 0 1.075-.872 1.947-1.947 1.947H9.737c-1.075 0-1.947-.872-1.947-1.947 0-1.076.872-1.948 1.947-1.948zm4.868-10.71c1.075 0 1.947.872 1.947 1.947 0 1.076-.872 1.948-1.947 1.948h-18.5c-1.075 0-1.948-.872-1.948-1.948 0-1.075.873-1.947 1.948-1.947z" transform="translate(3 3)"/>
        </g>
    </g>
</svg>
