<svg xmlns="http://www.w3.org/2000/svg" width="80" height="80" viewBox="0 0 80 80">
    <g fill="none" fill-rule="evenodd">
        <g>
            <g>
                <g transform="translate(-800 -1292) translate(0 720) translate(800 572)">
                    <circle cx="40" cy="40" r="40" fill="#000" fill-opacity=".5"/>
                    <path fill="#FFF" d="M34 24c1.105 0 2 .895 2 2v28c0 1.105-.895 2-2 2s-2-.895-2-2V26c0-1.105.895-2 2-2zm12 0c1.105 0 2 .895 2 2v28c0 1.105-.895 2-2 2s-2-.895-2-2V26c0-1.105.895-2 2-2z"/>
                </g>
            </g>
        </g>
    </g>
</svg>
