<svg xmlns="http://www.w3.org/2000/svg" width="80" height="80" viewBox="0 0 80 80">
    <g fill="none" fill-rule="evenodd">
        <path d="M0 0H80V80H0z"/>
        <g>
            <path fill="#25292D" fill-opacity=".1" d="M43 72c-.342 0-.679-.085-.98-.246C25.098 63.074 14.33 45.812 14 26.83c-.01-2.829.248-5.653.768-8.434.107-.56.443-1.052.926-1.357.484-.306 1.072-.398 1.626-.255 2.106.538 4.272.806 6.445.795 6.613.032 12.984-2.474 17.796-7 .803-.772 2.075-.772 2.879 0 4.81 4.525 11.182 7.032 17.794 7 2.174.01 4.34-.257 6.445-.796.554-.143 1.143-.05 1.626.255.484.305.82.797.927 1.357.52 2.782.777 5.606.768 8.435-.332 18.982-11.098 36.243-28.02 44.924-.302.161-.638.246-.98.246z" transform="translate(6.5 4)"/>
            <path fill="#FFF" fill-rule="nonzero" d="M33.5 72c-.395 0-.784-.098-1.132-.286C12.82 61.634.383 41.588 0 19.544-.01 16.26.287 12.98.887 9.75c.125-.651.512-1.222 1.07-1.576.56-.355 1.24-.462 1.88-.296 2.431.625 4.933.936 7.444.924 7.639.037 14.999-2.874 20.556-8.13.93-.896 2.398-.896 3.326 0 5.558 5.255 12.918 8.166 20.556 8.129 2.51.012 5.013-.298 7.445-.924.64-.166 1.32-.059 1.878.296.559.355.946.925 1.07 1.576.601 3.23.898 6.51.888 9.796-.383 22.043-12.82 42.089-32.368 52.17-.348.187-.737.285-1.132.285zM4.424 11.666c-.286 2.206-.427 4.428-.424 6.653C4.37 38.704 15.643 58.307 33.5 68 51.357 58.307 62.63 38.704 63 18.319c.003-2.225-.138-4.447-.424-6.653-2.064.36-4.154.54-6.249.538C48 12.224 39.926 9.322 33.5 4c-6.425 5.322-14.499 8.223-22.827 8.204-2.095.002-4.185-.178-6.25-.538zM32.27 46.18l14.208-16.375c.801-.985.666-2.42-.306-3.243-.972-.822-2.429-.732-3.29.202l-12.286 14.16-5.334-7.025c-.507-.669-1.337-1.02-2.177-.92-.84.1-1.562.636-1.895 1.404-.332.769-.224 1.654.284 2.323l7.104 9.357c.43.569 1.098.913 1.816.935.027.002.052.002.077.002.692 0 1.35-.3 1.799-.82z" transform="translate(6.5 4)"/>
        </g>
    </g>
</svg>
