<svg xmlns="http://www.w3.org/2000/svg" width="80" height="80" viewBox="0 0 80 80">
    <g fill="none" fill-rule="evenodd">
        <path d="M0 0H80V80H0z"/>
        <path fill="#535C65" fill-rule="nonzero" stroke="#535C65" stroke-width="1.6" d="M16.6 13.6c5.096 0 9.487 2.467 11.47 6h9.177c.791-.633 1.746-1.028 2.753-1.139V8.8C40 6.149 42.149 4 44.8 4H52c2.651 0 4.8 2.149 4.8 4.8v9.661c1.953.202 3.638 1.457 4.39 3.27.75 1.814.448 3.893-.79 5.417 8.914 4.305 14.84 13.054 15.531 22.929.69 9.875-3.96 19.364-12.189 24.867-1.006.679-2.189 1.046-3.402 1.056H36.448c-1.13.015-2.24-.305-3.19-.918-7.746-5.1-12.418-13.741-12.445-23.014 0-.024-.013-.044-.013-.068 0-.024.01-.037.012-.058 0-.783.022-1.57.088-2.36C21.732 40.555 26.913 32.5 34.782 28H28.07c-1.983 3.533-6.374 6-11.47 6C9.652 34 4 29.424 4 23.8s5.652-10.2 12.6-10.2h0zm37.8-4.8c0-1.325-1.075-2.4-2.4-2.4h-7.2c-1.325 0-2.4 1.075-2.4 2.4v9.6h12V8.8zm1.8 12H40.6c-.775 0-1.519.302-2.076.84l-.02.017c-.578.562-.904 1.334-.904 2.14 0 .807.326 1.579.904 2.141l.02.017c.557.539 1.301.84 2.076.84h15.6c1.657 0 3-1.343 3-3s-1.343-3-3-3v.005zM34.578 73.08c.56.35 1.21.53 1.87.52H60.34c.738-.009 1.457-.234 2.068-.65 4.915-3.29 8.516-8.206 10.172-13.884-2.646-.375-5.149-1.434-7.26-3.074-2.298-1.852-5.173-2.84-8.124-2.792-2.95-.049-5.823.939-8.12 2.79-2.7 2.126-6.048 3.26-9.484 3.21-3.432.049-6.776-1.084-9.472-3.209-1.975-1.572-4.37-2.525-6.886-2.738.405 8.039 4.62 15.403 11.344 19.826h0zM23.292 49.784c-.03.36-.04.714-.055 1.071 2.998.209 5.865 1.306 8.236 3.153 2.296 1.852 5.17 2.84 8.119 2.791 2.954.05 5.832-.939 8.132-2.794 2.697-2.122 6.04-3.254 9.472-3.206 3.434-.05 6.781 1.084 9.48 3.209 1.87 1.48 4.112 2.415 6.48 2.7 2.22-11.661-4.006-23.289-14.941-27.907-.64.261-1.324.396-2.015.398H40.6c-.694-.001-1.38-.137-2.022-.4-8.559 3.66-14.426 11.715-15.286 20.985h0zM35.532 25.6c-.442-1.16-.442-2.44 0-3.6h-6.54c.278 1.184.278 2.416 0 3.6h6.54zm-18.932 6c4.46 0 8.25-2.203 9.632-5.258l.011-.022c.743-1.598.743-3.442 0-5.04l-.01-.022C24.85 18.203 21.058 16 16.6 16c-5.624 0-10.2 3.5-10.2 7.8s4.576 7.8 10.2 7.8h0zm44.129 1.208C67.279 36.988 71.23 44.231 71.2 52c0 .663-.537 1.2-1.2 1.2-.663 0-1.2-.537-1.2-1.2.03-6.949-3.503-13.429-9.36-17.168-.559-.357-.722-1.1-.365-1.658.356-.559 1.099-.722 1.657-.366h-.003zM48.4 8.8c1.988 0 3.6 1.612 3.6 3.6S50.388 16 48.4 16s-3.6-1.612-3.6-3.6 1.612-3.6 3.6-3.6zm9 46.8c2.32 0 4.2 1.88 4.2 4.2 0 2.32-1.88 4.2-4.2 4.2-2.32 0-4.2-1.88-4.2-4.2 0-2.32 1.88-4.2 4.2-4.2zm0 6c.994 0 1.8-.806 1.8-1.8s-.806-1.8-1.8-1.8-1.8.806-1.8 1.8.806 1.8 1.8 1.8zm7.8 3.6c-.663 0-1.2-.537-1.2-1.2 0-.663.537-1.2 1.2-1.2.663 0 1.2.537 1.2 1.2 0 .663-.537 1.2-1.2 1.2zm-4.8 3.6c-.663 0-1.2-.537-1.2-1.2 0-.663.537-1.2 1.2-1.2.663 0 1.2.537 1.2 1.2 0 .663-.537 1.2-1.2 1.2zM16.6 18.4c4.666 0 7.8 2.792 7.8 5.4 0 .663-.537 1.2-1.2 1.2-.663 0-1.2-.537-1.2-1.2 0-1.224-2.104-3-5.4-3-.663 0-1.2-.537-1.2-1.2 0-.663.537-1.2 1.2-1.2zM67.474 4.664c.144.285.169.616.068.92-.101.303-.32.554-.606.696l-4.8 2.4c-.593.296-1.314.056-1.61-.538-.296-.593-.056-1.314.538-1.61l4.8-2.4c.591-.297 1.312-.06 1.61.532zm-5.338 11.462l4.8 2.4c.384.192.636.573.662 1.002.026.428-.178.837-.536 1.074-.358.236-.815.264-1.198.072l-4.8-2.4c-.384-.192-.636-.573-.662-1.002-.026-.428.178-.837.536-1.074.358-.236.815-.264 1.198-.072h0zM68.8 12.4c0 .663-.537 1.2-1.2 1.2h-4.8c-.663 0-1.2-.537-1.2-1.2 0-.663.537-1.2 1.2-1.2h4.8c.663 0 1.2.537 1.2 1.2zM30.4 64c.53-.398 1.282-.29 1.68.24 1.322 1.766 2.922 3.306 4.736 4.56l4.384-.007c.663 0 1.2.537 1.2 1.2 0 .663-.537 1.2-1.2 1.2l-4.75.007c-.237 0-.468-.07-.666-.202-2.164-1.439-4.066-3.238-5.624-5.318-.398-.53-.29-1.282.24-1.68h0z"/>
    </g>
</svg>
