<svg xmlns="http://www.w3.org/2000/svg" width="80" height="80" viewBox="0 0 80 80">
    <g fill="none" fill-rule="evenodd">
        <path d="M0 0H80V80H0z"/>
        <g>
            <path fill="#E0F5F3" d="M73.114 30.017c.835-.119 1.431.394 1.569 1.322.358 2.402.395 4.82.2 7.234-.597 7.384-3.321 13.966-8.056 19.675-4.94 5.96-11.271 9.908-18.853 11.822-1.735.439-3.52.82-5.299.915-1.546.08-3.138-.17-4.672-.468-14.595-2.836-25.83-14.14-28.457-28.581-.632-3.474-.711-6.964-.26-10.466.143-1.1.721-1.52 1.904-1.412 8.8.794 16.293 4.353 22.495 10.501 3.646 3.616 6.317 7.884 8.096 12.681.055.15.113.3.188.5.592-1.353 1.08-2.657 1.714-3.89 5.14-10 13.222-16.387 24.295-19.023 1.68-.4 3.42-.566 5.136-.81zM40.85 9.534c.733-.697 1.563-.72 2.288-.021C49.35 15.498 53.282 22.67 54.79 31.096c.078.438.168.876.205 1.317.07.84-.49 1.514-1.275 1.58-.82.071-1.43-.445-1.554-1.286-1.133-7.62-4.367-14.254-9.723-19.891-.139-.146-.218-.346-.338-.542-1.789 1.75-3.219 3.52-4.496 5.41-3.049 4.517-4.952 9.461-5.744 14.819-.131.886-.43 1.28-1.09 1.43-1.065.243-1.945-.47-1.746-1.557.372-2.023.729-4.063 1.328-6.028 1.98-6.5 5.524-12.09 10.493-16.814z" transform="translate(4 6)"/>
            <path fill="#34B4A9" stroke="#34B4A9" stroke-linejoin="round" d="M61.383 50.984c-6.026 7.867-14.06 12.354-23.817 13.839-2.31.35-4.533-.166-6.736-.7C16.576 60.669 5.972 49.267 3.555 34.815c-.491-2.933-.584-5.89-.317-8.99 1.002.171 1.967.286 2.907.502 12.84 2.951 21.708 10.572 26.564 22.796.79 1.99 1.184 4.143 1.72 6.231.212.83.773 1.4 1.543 1.396.794-.003 1.386-.538 1.555-1.37 2.55-12.546 9.634-21.518 21.278-26.85 2.993-1.371 6.17-2.165 9.428-2.628.129-.018.26-.015.488-.027.035.303.075.543.088.783.482 9.011-1.934 17.158-7.426 24.326m8.56-28.352c.91-.131 1.56.437 1.71 1.463.392 2.66.432 5.335.219 8.008-.651 8.174-3.623 15.46-8.788 21.78-5.39 6.598-12.296 10.969-20.567 13.087-1.893.486-3.84.909-5.78 1.013-1.687.09-3.424-.188-5.097-.518C15.718 64.325 3.462 51.812.596 35.826c-.69-3.845-.776-7.71-.283-11.586.155-1.217.786-1.681 2.076-1.562 9.6.878 17.774 4.818 24.54 11.624 3.978 4.003 6.892 8.728 8.832 14.038.06.167.123.333.205.553.646-1.497 1.179-2.94 1.87-4.306 5.608-11.07 14.424-18.14 26.504-21.059 1.833-.442 3.73-.626 5.603-.896zM34.763.589c.794-.77 1.692-.793 2.476-.023C43.958 7.17 48.21 15.082 49.84 24.379c.085.483.182.966.222 1.453.076.926-.53 1.67-1.38 1.744-.885.078-1.545-.492-1.68-1.42C45.778 17.749 42.28 10.43 36.487 4.21c-.15-.16-.236-.382-.366-.598-1.934 1.932-3.481 3.883-4.862 5.97-3.298 4.983-5.356 10.438-6.213 16.349-.142.978-.464 1.413-1.178 1.579-1.153.267-2.104-.52-1.89-1.719.403-2.232.789-4.483 1.437-6.65C25.555 11.97 29.39 5.8 34.764.588z" transform="translate(4 6)"/>
        </g>
    </g>
</svg>
