<svg xmlns="http://www.w3.org/2000/svg" width="80" height="80" viewBox="0 0 80 80">
    <g fill="none" fill-rule="evenodd">
        <path d="M0 0H80V80H0z"/>
        <path fill="#E0F5F3" d="M13 36.504c0 1.372.423 2.489 1.258 3.319.795.79 1.793 1.128 2.513 1.272v33.518l6.6 4.387 5.658-3.76L34.686 79l5.657-3.76L46 79l5.657-3.76L57.314 79l5.657-3.76L68.63 79l6.6-4.387V41.095c.72-.145 1.718-.482 2.513-1.272.835-.83 1.258-1.947 1.258-3.32v-.744l-32.057-7.521v-2.143c3.194-.457 5.657-3.204 5.657-6.514C52.6 15.952 49.64 13 46 13c-3.64 0-6.6 2.952-6.6 6.581h1.886c0-2.592 2.115-4.7 4.714-4.7 2.6 0 4.714 2.108 4.714 4.7s-2.115 4.7-4.714 4.7h-.943v3.957L13 35.758v.746z"/>
        <path fill="#34B4A9" stroke="#34B4A9" stroke-linejoin="round" stroke-width="1.9" d="M4 29.64c0 1.497.462 2.716 1.372 3.621.867.863 1.957 1.23 2.742 1.388v36.565l7.2 4.786 6.172-4.102L27.657 76l6.172-4.102L40 76l6.171-4.102L52.343 76l6.171-4.102L64.686 76l7.2-4.786V34.649c.786-.158 1.875-.525 2.742-1.388.91-.905 1.372-2.124 1.372-3.62v-.813l-34.971-8.205v-2.337c3.484-.5 6.171-3.496 6.171-7.107C47.2 7.221 43.97 4 40 4s-7.2 3.22-7.2 7.18h2.057c0-2.828 2.307-5.129 5.143-5.129s5.143 2.3 5.143 5.128c0 2.828-2.307 5.128-5.143 5.128h-1.029v4.316L4 28.828v.812zm65.829 40.476l-5.143 3.419-6.172-4.103-6.171 4.103-6.172-4.103L40 73.535l-6.171-4.103-6.172 4.103-6.171-4.103-6.172 4.103-5.143-3.42V63.05H69.83v7.067zm0-9.116H10.17v-5H69.83v5zm0-7.1H10.17v-5H69.83v5zm0-19.516v12.333H10.17V33.56c.012-.384.2-.843 1.029-.843h57.6c.828 0 1.017.459 1.029.833v.834zM40 22.489l33.87 7.947c-.292 1.473-1.392 1.997-2.2 2.182-.365-.996-1.24-1.952-2.87-1.952H11.2c-1.621 0-2.494.945-2.864 1.935-.47-.114-1.057-.34-1.511-.792-.36-.358-.591-.811-.698-1.373L40 22.49z"/>
    </g>
</svg>
