<svg xmlns="http://www.w3.org/2000/svg" width="80" height="80" viewBox="0 0 80 80">
    <g fill="none" fill-rule="evenodd">
        <path d="M0 0H80V80H0z"/>
        <path fill="#E0F5F3" d="M77.479 39.378L63.025 24.954c-.334-.333-.785-.52-1.257-.52h-3.206L55.14 21.02c-.08-.08-.166-.147-.256-.209-.006-.004-.01-.01-.016-.013-.132-.088-.272-.149-.417-.198-.034-.011-.068-.021-.103-.03-.153-.042-.308-.07-.465-.07H38.116c-.229 0-.442.057-.646.137-.077.028-.149.066-.22.104-.059.033-.115.062-.17.1-.077.055-.153.11-.222.179l-3.42 3.414H30.23c-.47 0-.923.187-1.257.52L14.52 39.378c-.694.693-.694 1.816 0 2.509l7.885 7.868c.693.693 1.82.693 2.513 0l3.536-3.528v28.499c0 .98.795 1.774 1.777 1.774h31.537c.982 0 1.777-.794 1.777-1.774v-28.5l3.536 3.529c.695.693 1.82.693 2.514 0l7.884-7.868c.694-.693.694-1.816 0-2.509z"/>
        <path fill="#34B4A9" stroke="#34B4A9" stroke-width=".5" d="M65.13 37.177l-5.977-5.964c-.572-.571-1.431-.743-2.18-.432-.746.308-1.234 1.036-1.234 1.844v34.883h-13.74V24.165l1.022 1.02c.375.374.883.584 1.414.584.53 0 1.039-.21 1.414-.585l8.284-8.267h2.778L71.17 31.15l-6.04 6.028zm-42.104-6.396c-.746-.31-1.608-.139-2.18.432l-5.976 5.964-6.041-6.028 14.26-14.232h2.779l8.284 8.267c.375.375.883.585 1.414.585.53 0 1.039-.21 1.414-.585L38 24.165v43.343H24.26V32.625c0-.808-.486-1.536-1.234-1.844h0zM44.04 12.49L40 16.525l-4.041-4.032h8.082zm4.828.828l1.608 1.603-6.042 6.028-1.607-1.603 6.04-6.028zm-17.738 0l6.04 6.028-1.605 1.603-6.042-6.028 1.607-1.603zm44.283 16.419L59.153 13.51c-.375-.375-.883-.585-1.414-.585h-3.606l-3.85-3.841c-.09-.09-.187-.166-.288-.235l-.018-.015c-.148-.098-.306-.167-.47-.222-.037-.013-.076-.024-.115-.035-.172-.046-.346-.078-.523-.078H31.13c-.257 0-.497.064-.727.154-.086.032-.167.075-.248.117-.065.037-.13.07-.19.113-.087.061-.173.124-.25.2l-3.848 3.842H22.26c-.53 0-1.04.21-1.414.585L4.586 29.738c-.781.78-.781 2.043 0 2.822l8.87 8.852c.78.779 2.048.779 2.828 0l3.977-3.97v32.062c0 1.103.895 1.996 2 1.996h35.478c1.105 0 2-.893 2-1.996V37.443l3.978 3.969c.78.779 2.047.779 2.828 0l8.869-8.852c.78-.78.78-2.043 0-2.822h0zm-30.98 1.41c-.819 0-1.478.66-1.478 1.477 0 .814.66 1.475 1.478 1.475.814 0 1.48-.661 1.48-1.475 0-.818-.666-1.476-1.48-1.476m0 5.9c-.819 0-1.478.66-1.478 1.476 0 .815.66 1.475 1.478 1.475.814 0 1.48-.66 1.48-1.475 0-.817-.666-1.475-1.48-1.475m0 5.9c-.819 0-1.478.659-1.478 1.476 0 .815.66 1.475 1.478 1.475.814 0 1.48-.66 1.48-1.475 0-.817-.666-1.476-1.48-1.476m0 5.9c-.819 0-1.478.66-1.478 1.477 0 .815.66 1.475 1.478 1.475.814 0 1.48-.66 1.48-1.475 0-.818-.666-1.476-1.48-1.476m0 5.9c-.819 0-1.478.66-1.478 1.477 0 .815.66 1.474 1.478 1.474.814 0 1.48-.66 1.48-1.474 0-.818-.666-1.476-1.48-1.476"/>
    </g>
</svg>
