<svg xmlns="http://www.w3.org/2000/svg" xmlns:xlink="http://www.w3.org/1999/xlink" width="213" height="48" viewBox="0 0 213 48">
    <defs>
        <linearGradient id="fa0v6j34db" x1="68.285%" x2="32.14%" y1="92.954%" y2="7.725%">
            <stop offset="0%" stop-color="#26F596"/>
            <stop offset="100%" stop-color="#0499F2"/>
        </linearGradient>
        <linearGradient id="u5giaoromc" x1="79.352%" x2="22.685%" y1="14.131%" y2="86.484%">
            <stop offset="0%" stop-color="#26F596"/>
            <stop offset="100%" stop-color="#0499F2"/>
        </linearGradient>
        <linearGradient id="07110qjp0d" x1="80.195%" x2="21.863%" y1="87.477%" y2="13.904%">
            <stop offset="0%" stop-color="#26F596"/>
            <stop offset="100%" stop-color="#0499F2"/>
        </linearGradient>
        <linearGradient id="fte7txp9ze" x1="50%" x2="50%" y1="100%" y2="0%">
            <stop offset="0%" stop-color="#26F596"/>
            <stop offset="100%" stop-color="#0499F2"/>
        </linearGradient>
        <linearGradient id="ptgrs55qzf" x1="22.565%" x2="66.653%" y1="22.936%" y2="71.008%">
            <stop offset="0%" stop-color="#26F596"/>
            <stop offset="100%" stop-color="#0499F2"/>
        </linearGradient>
        <path id="zcrpmi0q1a" d="M75.67 34.703l3.99-9.454 3.96 9.454h2.88l8.79-21.108H91.6l-6.63 17.243-3.18-7.76 3.63-9.394h-3.15l-2.64 7.165-2.61-7.165h-3.18l3.66 9.394-3.18 7.76-6.66-17.243H64l8.79 21.108h2.88zm25.39.297c1.18 0 2.285-.243 3.315-.728 1.03-.486 1.895-1.185 2.595-2.096l.09.98c.08.496.295.903.645 1.22.35.317.845.475 1.485.475.22 0 .445-.01.675-.03.23-.02.505-.059.825-.118v-2.795c-.58-.02-.87-.376-.87-1.07v-5.62c0-2.04-.6-3.606-1.8-4.696-1.2-1.09-2.88-1.636-5.04-1.636-2.18 0-4.28.674-6.3 2.022l1.02 2.081c.86-.575 1.695-1.016 2.505-1.323.81-.307 1.635-.46 2.475-.46 1.24 0 2.19.321 2.85.966.66.644.99 1.54.99 2.69v1.07c-.58-.218-1.23-.391-1.95-.52s-1.45-.193-2.19-.193c-.98 0-1.875.119-2.685.357s-1.51.574-2.1 1.01c-.59.437-1.045.952-1.365 1.546-.32.595-.48 1.259-.48 1.992 0 .694.135 1.338.405 1.933.27.594.64 1.11 1.11 1.546.47.436 1.03.778 1.68 1.025.65.248 1.355.372 2.115.372zm.9-2.408c-.9 0-1.64-.263-2.22-.788-.58-.525-.87-1.174-.87-1.947 0-.833.375-1.502 1.125-2.007.75-.505 1.715-.758 2.895-.758.6 0 1.215.06 1.845.178.63.12 1.225.288 1.785.506v2.051c0 .396-.21.773-.63 1.13-.4.515-.955.916-1.665 1.204-.71.287-1.465.43-2.265.43zM120.51 35c1.94 0 3.475-.431 4.605-1.293 1.13-.862 1.695-2.037 1.695-3.523 0-.654-.12-1.214-.36-1.68-.24-.466-.61-.872-1.11-1.219-.5-.347-1.135-.649-1.905-.907-.77-.257-1.685-.515-2.745-.773-.64-.158-1.175-.302-1.605-.43-.43-.13-.78-.273-1.05-.432-.27-.158-.465-.347-.585-.565-.12-.218-.18-.485-.18-.802 0-.753.285-1.303.855-1.65.57-.347 1.275-.52 2.115-.52 1.64 0 3.19.574 4.65 1.724l1.41-1.962c-.8-.674-1.71-1.19-2.73-1.546-1.02-.357-2.12-.536-3.3-.536-.86 0-1.66.11-2.4.328-.74.218-1.385.54-1.935.966-.55.426-.98.946-1.29 1.56-.31.615-.465 1.319-.465 2.111 0 .595.1 1.1.3 1.517.2.416.52.782.96 1.1.44.317 1.01.594 1.71.832s1.54.486 2.52.743c1.36.357 2.36.684 3 .981.64.298.96.773.96 1.427 0 .694-.285 1.23-.855 1.606-.57.376-1.345.565-2.325.565-.96 0-1.9-.174-2.82-.52-.92-.347-1.85-.858-2.79-1.532l-1.32 2.081c.9.754 1.975 1.333 3.225 1.74 1.25.406 2.505.609 3.765.609zm13.48-.297v-9.246c.16-.535.4-1.026.72-1.472.32-.446.685-.832 1.095-1.16.41-.326.845-.58 1.305-.757.46-.179.92-.268 1.38-.268.96 0 1.695.342 2.205 1.026.51.683.765 1.739.765 3.166v8.71h3.3V25.22c0-.852-.075-1.66-.225-2.423-.15-.763-.415-1.432-.795-2.007-.38-.575-.885-1.035-1.515-1.382-.63-.347-1.435-.52-2.415-.52-1.22 0-2.345.297-3.375.891-1.03.595-1.845 1.427-2.445 2.498V13h-3.3v21.703h3.3zm21.04 0V16.538h7.08v-2.943h-17.58v2.943h7.11v18.165h3.39zm14.2.297c1.66 0 3.115-.372 4.365-1.115s2.145-1.7 2.685-2.869l-2.82-.802c-.16.356-.38.683-.66.98-.28.298-.6.55-.96.759-.36.208-.755.366-1.185.475-.43.11-.865.164-1.305.164-.6 0-1.175-.11-1.725-.327-.55-.218-1.04-.53-1.47-.937-.43-.406-.78-.887-1.05-1.442-.27-.554-.435-1.179-.495-1.872h12.57c.02-.14.04-.313.06-.52.02-.209.03-.432.03-.67 0-1.05-.185-2.056-.555-3.017-.37-.962-.905-1.804-1.605-2.527-.7-.724-1.545-1.303-2.535-1.74-.99-.435-2.095-.654-3.315-.654-1.24 0-2.36.214-3.36.64-1 .426-1.855 1.01-2.565 1.754-.71.743-1.26 1.605-1.65 2.586-.39.981-.585 2.017-.585 3.107 0 1.09.195 2.12.585 3.092.39.971.94 1.823 1.65 2.557.71.733 1.565 1.313 2.565 1.739 1 .426 2.11.639 3.33.639zm4.77-9.246h-9.48c.06-.654.22-1.259.48-1.813.26-.555.6-1.026 1.02-1.413.42-.386.905-.688 1.455-.906.55-.218 1.135-.327 1.755-.327.62 0 1.21.109 1.77.327.56.218 1.05.52 1.47.906.42.387.765.858 1.035 1.413.27.554.435 1.159.495 1.813zM188.08 35c1.66 0 3.1-.372 4.32-1.115 1.22-.743 2.09-1.7 2.61-2.869l-3.24-.951c-.12.297-.305.575-.555.832-.25.258-.54.486-.87.684-.33.198-.695.352-1.095.46-.4.11-.8.164-1.2.164-.64 0-1.245-.133-1.815-.4-.57-.269-1.07-.64-1.5-1.116-.43-.475-.77-1.035-1.02-1.68-.25-.644-.375-1.342-.375-2.095 0-.773.12-1.477.36-2.111.24-.635.57-1.185.99-1.65.42-.466.915-.828 1.485-1.085.57-.258 1.185-.387 1.845-.387.78 0 1.49.183 2.13.55.64.367 1.15.877 1.53 1.531l3.21-1.01c-.58-1.17-1.455-2.107-2.625-2.81-1.17-.704-2.565-1.056-4.185-1.056-1.24 0-2.36.214-3.36.64-1 .426-1.855 1.006-2.565 1.739-.71.733-1.255 1.585-1.635 2.557-.38.97-.57 2.001-.57 3.092 0 1.09.195 2.12.585 3.091.39.972.94 1.829 1.65 2.572.71.743 1.565 1.333 2.565 1.769 1 .436 2.11.654 3.33.654zm13.96-.297v-9.246c.16-.535.4-1.026.72-1.472.32-.446.685-.832 1.095-1.16.41-.326.845-.58 1.305-.757.46-.179.92-.268 1.38-.268.96 0 1.695.342 2.205 1.026.51.683.765 1.739.765 3.166v8.71h3.3V25.22c0-.852-.075-1.66-.225-2.423-.15-.763-.415-1.432-.795-2.007-.38-.575-.885-1.035-1.515-1.382-.63-.347-1.435-.52-2.415-.52-1.22 0-2.345.297-3.375.891-1.03.595-1.845 1.427-2.445 2.498V13h-3.3v21.703h3.3z"/>
    </defs>
    <g fill="none" fill-rule="evenodd">
        <g fill-rule="nonzero">
            <use fill="#44566C" xlink:href="#zcrpmi0q1a"/>
            <use fill="#0B254B" xlink:href="#zcrpmi0q1a"/>
        </g>
        <circle cx="24" cy="24" r="24" fill="#252524"/>
        <g>
            <path fill="url(#fa0v6j34db)" d="M2.66 1.543C4.13.695 6.01 1.2 6.857 2.668L15.305 17.3c.848 1.47.345 3.348-1.125 4.197-1.469.848-3.348.344-4.196-1.125L1.536 5.74C.688 4.27 1.191 2.392 2.66 1.543z" transform="translate(5.4 14.7)"/>
            <path fill="url(#u5giaoromc)" d="M20.55 9.463c1.3 1.09 1.47 3.028.38 4.328l-5.924 7.06c-1.09 1.3-3.029 1.469-4.328.378-1.3-1.09-1.47-3.028-.379-4.328l5.924-7.06c1.09-1.3 3.028-1.469 4.328-.378z" transform="translate(5.4 14.7)"/>
            <path fill="url(#07110qjp0d)" d="M16.63 9.463c-1.3 1.09-1.47 3.028-.379 4.328l5.924 7.06c1.09 1.3 3.028 1.469 4.328.378 1.3-1.09 1.47-3.028.379-4.328l-5.924-7.06c-1.09-1.3-3.029-1.469-4.328-.378z" transform="translate(5.4 14.7)"/>
            <path fill="url(#fte7txp9ze)" d="M28.772.096c1.697 0 3.072 1.375 3.072 3.072v16.896c0 1.697-1.375 3.072-3.072 3.072-1.696 0-3.072-1.375-3.072-3.072V3.168c0-1.697 1.376-3.072 3.072-3.072z" transform="translate(5.4 14.7) scale(-1 1) rotate(-30 0 118.996)"/>
            <path fill="url(#ptgrs55qzf)" d="M18.452 7.776c1.92-2.216 2.88-3.852 2.88-4.908 0-1.584-1.289-2.868-2.88-2.868-1.59 0-2.88 1.284-2.88 2.868 0 1.056.96 2.692 2.88 4.908z" transform="translate(5.4 14.7) rotate(-180 18.452 3.888)"/>
        </g>
    </g>
</svg>
