<svg xmlns="http://www.w3.org/2000/svg" width="199" height="38" viewBox="0 0 199 38">
    <g fill="none" fill-rule="evenodd">
        <g fill="#12B07E">
            <g>
                <g>
                    <path d="M102.061 13.327c2.596 0 4.584.638 5.965 1.912 1.38 1.274 2.07 3.174 2.07 5.7v11.326h-3.22v-2.477c-.567.873-1.376 1.54-2.426 2-1.05.46-2.295.69-3.734.69-2.1 0-3.782-.507-5.044-1.522-1.263-1.015-1.894-2.348-1.894-4 0-1.652.602-2.98 1.805-3.983 1.204-1.002 3.115-1.504 5.735-1.504h5.38v-.673c0-1.463-.424-2.584-1.274-3.362-.85-.78-2.1-1.168-3.752-1.168-1.11 0-2.195.183-3.257.548-1.062.367-1.959.856-2.69 1.47l-1.416-2.55c.968-.778 2.124-1.374 3.469-1.787 1.345-.413 2.773-.62 4.283-.62zm20.39 0c1.25 0 2.5.154 3.751.46 1.251.307 2.278.72 3.08 1.24l-1.451 2.69c-1.534-.991-3.34-1.487-5.416-1.487-1.44 0-2.537.236-3.292.708-.755.473-1.133 1.098-1.133 1.876 0 .614.213 1.097.637 1.451.425.355.95.615 1.575.78.626.165 1.505.353 2.638.566 1.51.26 2.731.536 3.663.831.933.296 1.729.797 2.39 1.505.66.708.99 1.699.99 2.973 0 1.7-.725 3.05-2.176 4.054-1.451 1.003-3.428 1.504-5.93 1.504-1.533 0-3.008-.207-4.424-.62-1.416-.412-2.525-.938-3.327-1.575l1.416-2.69c.825.59 1.828 1.062 3.008 1.416 1.18.354 2.372.53 3.576.53 2.973 0 4.46-.849 4.46-2.548 0-.566-.201-1.014-.602-1.345-.401-.33-.903-.572-1.504-.726-.602-.153-1.458-.324-2.567-.513-1.51-.236-2.743-.507-3.699-.814-.956-.306-1.776-.826-2.46-1.558-.685-.73-1.027-1.757-1.027-3.079 0-1.7.708-3.062 2.124-4.088 1.416-1.027 3.316-1.54 5.7-1.54zm43.928 0c1.864 0 3.533.408 5.009 1.222 1.474.814 2.63 1.946 3.469 3.398.837 1.451 1.256 3.097 1.256 4.938 0 1.84-.419 3.487-1.256 4.938-.838 1.451-1.995 2.59-3.47 3.416-1.475.826-3.144 1.239-5.008 1.239-1.864 0-3.54-.413-5.027-1.239-1.487-.826-2.65-1.965-3.486-3.416-.839-1.451-1.257-3.097-1.257-4.938 0-1.84.418-3.487 1.257-4.938.837-1.452 2-2.584 3.486-3.398 1.487-.814 3.163-1.222 5.027-1.222zm22.477 0c1.864 0 3.534.408 5.009 1.222 1.475.814 2.631 1.946 3.47 3.398.837 1.451 1.256 3.097 1.256 4.938 0 1.84-.42 3.487-1.257 4.938-.838 1.451-1.994 2.59-3.47 3.416-1.474.826-3.144 1.239-5.008 1.239-1.864 0-3.54-.413-5.026-1.239-1.487-.826-2.65-1.965-3.487-3.416-.838-1.451-1.257-3.097-1.257-4.938 0-1.84.419-3.487 1.257-4.938.837-1.452 2-2.584 3.487-3.398 1.486-.814 3.162-1.222 5.026-1.222zm-124.635.177l5.452 14.938 5.663-14.938h2.867l5.558 15.01 5.593-15.01h3.044L85.39 32.265h-3.256l-5.416-14.23-5.487 14.23h-3.256L61 13.505h3.221zM137.529 6v10.16c.709-.897 1.635-1.593 2.78-2.09 1.144-.495 2.424-.743 3.84-.743 2.383 0 4.277.69 5.681 2.071 1.404 1.381 2.107 3.405 2.107 6.071v10.796h-3.399V21.858c0-1.817-.437-3.185-1.31-4.106-.872-.92-2.123-1.38-3.752-1.38-1.84 0-3.292.537-4.354 1.61-1.062 1.075-1.593 2.614-1.593 4.62v9.663h-3.397V6h3.397zM106.7 23.911h-5.24c-2.88 0-4.318.968-4.318 2.903 0 .944.366 1.688 1.097 2.23.732.543 1.746.814 3.044.814s2.42-.289 3.363-.867c.944-.578 1.629-1.398 2.053-2.46v-2.62zm59.68-7.61c-1.204 0-2.283.272-3.24.814-.955.543-1.71 1.316-2.265 2.319-.554 1.003-.831 2.153-.831 3.45 0 1.3.277 2.45.831 3.452.555 1.004 1.31 1.782 2.266 2.337.956.554 2.035.831 3.24.831 1.202 0 2.282-.277 3.238-.831.956-.555 1.705-1.333 2.247-2.337.543-1.002.815-2.153.815-3.451s-.272-2.448-.815-3.451c-.542-1.003-1.291-1.776-2.247-2.319-.956-.542-2.036-.814-3.239-.814zm22.477 0c-1.203 0-2.283.272-3.239.814-.955.543-1.71 1.316-2.265 2.319-.555 1.003-.832 2.153-.832 3.45 0 1.3.277 2.45.832 3.452.554 1.004 1.31 1.782 2.265 2.337.956.554 2.036.831 3.24.831 1.203 0 2.282-.277 3.238-.831.956-.555 1.705-1.333 2.248-2.337.543-1.002.814-2.153.814-3.451s-.271-2.448-.814-3.451c-.543-1.003-1.292-1.776-2.248-2.319-.956-.542-2.035-.814-3.239-.814zM43.866 17.356c-1.76-.944-3.953-.282-4.896 1.478l-5.72 10.67-3.665-6.509-.016-.027c-.13-.227-.275-.444-.428-.652.287-.335.58-.686.874-1.048 4.73-5.837 4.73-8.836 4.73-9.821C34.746 5.135 29.61 0 23.3 0c-6.264 0-11.368 5.057-11.446 11.303-.023 1.854 1.437 3.58 3.284 3.745 2.147.192 3.949-1.494 3.949-3.601 0-2.324 1.89-4.214 4.213-4.214 2.323 0 4.213 1.89 4.213 4.214 0 .013-.044 1.465-3.083 5.225-1.194 1.477-11.016 13.455-11.016 13.455l-6.724-11.42c-1.059-1.797-3.43-2.343-5.178-1.136-1.522 1.051-1.956 3.277-1.018 4.871l7.103 12.062.01.016c1.104 1.868 3.043 3.097 5.205 3.265.203.015.394.023.585.023 2.267 0 4.356-1.12 5.612-3.018l4.779-7.349 3.617 6.425.016.026c1.2 2.092 3.433 3.381 5.84 3.381h.081c2.438-.03 4.675-1.379 5.839-3.521l6.165-11.5c.944-1.76.282-3.953-1.479-4.896" transform="translate(-621 -21) translate(150 16) translate(471 5)"/>
                </g>
            </g>
        </g>
    </g>
</svg>
