<svg xmlns="http://www.w3.org/2000/svg" width="64" height="64" viewBox="0 0 64 64">
    <g fill="none" fill-rule="evenodd">
        <path d="M0 0H64V64H0z"/>
        <path fill="#FFF" stroke="#FFF" stroke-width=".5" d="M55.077 17.068h-1.401c-.775-2.212-2.43-3.996-4.565-4.918-2.579-5.074-7.778-8.23-13.419-8.148-4.624-.04-9.012 2.064-11.907 5.71-.093-.01-.185-.014-.277-.024-.129-.012-.256-.023-.385-.032-.428-.032-.854-.054-1.277-.054-6.166 0-11.255 3.273-11.921 7.466H8.923c-.51 0-.923.418-.923.934v3.733c0 .515.413.933.923.933h1.051l5.42 36.538c.068.457.457.796.914.796h31.384c.457 0 .846-.339.913-.796l5.42-36.538h1.052c.51 0 .923-.418.923-.933v-3.733c0-.516-.413-.934-.923-.934zm-32.052-5.551c.204.016.408.043.613.067 2.522.2 4.907 1.239 6.785 2.952.232.243.575.34.898.256.323-.085.575-.34.66-.666.085-.326-.01-.673-.25-.908-1.632-1.554-3.65-2.632-5.839-3.12 2.544-2.725 6.094-4.258 9.8-4.23 4.336-.052 8.418 2.058 10.915 5.642-.952-.087-1.912-.01-2.838.232-.494.129-.79.638-.663 1.137.127.5.631.8 1.125.67 1.248-.334 2.566-.281 3.784.15.03.022.06.04.093.057 1.564.596 2.838 1.784 3.554 3.312H11.809c.015-.072.031-.144.05-.215.024-.087.048-.174.078-.26.04-.12.092-.238.142-.355.035-.082.067-.163.108-.242.061-.122.133-.242.205-.361.043-.07.082-.143.128-.213.093-.135.194-.267.3-.398.038-.048.072-.1.113-.148.154-.18.317-.353.488-.516.037-.036.08-.07.12-.105.14-.129.285-.256.44-.378.07-.057.15-.109.224-.164.13-.093.261-.192.4-.28.093-.059.185-.113.277-.169.135-.082.27-.163.411-.24.102-.056.206-.107.31-.16.143-.071.286-.141.433-.209.111-.049.224-.093.338-.144.15-.062.302-.122.462-.18.118-.042.238-.085.359-.125.16-.054.322-.103.486-.152.124-.035.248-.071.375-.104.17-.045.343-.084.518-.122.127-.028.253-.057.382-.083.185-.035.37-.064.562-.093.125-.019.248-.04.374-.056.211-.027.427-.046.646-.063.108-.01.214-.023.323-.03.319-.023.65-.035.985-.035.397 0 .79.019 1.179.049zm16.925 9.357h0l-7.519 3.38-2.63-5.32h14.465l-4.316 1.94zm-12.565 8.328v.933h-9.231v-11.2h9.23v10.267zm-9.231 3.733v-.933h9.23v1.866h-9.23v-.933zm-8.308-14h6.462v1.867H9.846v-1.867zm37.052 39.2H17.102l-5.261-35.467h4.467v12.134c0 .515.413.933.923.933h11.077c.51 0 .923-.418.923-.933V21.955l1.943 3.93c.22.447.749.639 1.2.436l8.13-3.653H52.16l-5.261 35.467zm-11.206-11.2c.51 0 .923.418.923.933h0v3.734c0 .515-.413.933-.923.933s-.923-.418-.923-.933h0v-3.734c0-.515.414-.933.923-.933zm7.385 0c.51 0 .923.418.923.933h0v3.734c0 .515-.413.933-.923.933s-.923-.418-.923-.933h0v-3.734c0-.515.413-.933.923-.933zm-22.154 0c.51 0 .923.418.923.933h0v3.734c0 .515-.413.933-.923.933S20 52.117 20 51.602h0v-3.734c0-.515.413-.933.923-.933zm7.385 0c.51 0 .923.418.923.933h0v3.734c0 .515-.414.933-.923.933-.51 0-.923-.418-.923-.933h0v-3.734c0-.515.413-.933.923-.933zm5.538-9.333c.51 0 .923.417.923.933h0v3.733c0 .516-.413.934-.923.934s-.923-.418-.923-.934h0v-3.733c0-.516.413-.933.923-.933zm7.385 0c.51 0 .923.417.923.933h0v3.733c0 .516-.413.934-.923.934s-.923-.418-.923-.934h0v-3.733c0-.516.413-.933.923-.933zm-22.154 0c.51 0 .923.417.923.933h0v3.733c0 .516-.413.934-.923.934s-.923-.418-.923-.934h0v-3.733c0-.516.413-.933.923-.933zm7.385 0c.51 0 .923.417.923.933h0v3.733c0 .516-.414.934-.923.934-.51 0-.924-.418-.924-.934h0v-3.733c0-.516.414-.933.924-.933zM32 28.268c.51 0 .923.418.923.934h0v3.733c0 .515-.413.933-.923.933s-.923-.418-.923-.933h0v-3.733c0-.516.413-.934.923-.934zm7.385 0c.51 0 .923.418.923.934h0v3.733c0 .515-.414.933-.923.933-.51 0-.923-.418-.923-.933h0v-3.733c0-.516.413-.934.923-.934zm7.384 0c.51 0 .923.418.923.934h0v3.733c0 .515-.413.933-.923.933s-.923-.418-.923-.933h0v-3.733c0-.516.413-.934.923-.934zm7.385-9.333v1.867h-9.496l4.154-1.867h5.342z"/>
    </g>
</svg>
