<svg xmlns="http://www.w3.org/2000/svg" width="80" height="80" viewBox="0 0 80 80">
    <g fill="none" fill-rule="evenodd">
        <path d="M0 0H80V80H0z"/>
        <path fill="#535C65" d="M69.044 47.316c0 .521-.43.946-.957.946h-3.913V31.738h3.913c.527 0 .957.425.957.946v14.632zm-8.87 8.778c0 .521-.429.947-.956.947h-8.87c-.528 0-.956-.426-.956-.947V23.906c0-.522.428-.947.956-.947h8.87c.527 0 .956.425.956.947v32.188zm-29.565 0c0 .521-.429.947-.957.947h-8.869c-.528 0-.957-.426-.957-.947V23.906c0-.522.429-.947.957-.947h8.869c.528 0 .957.425.957.947v32.188zm-18.696-7.832c-.527 0-.956-.425-.956-.946V32.684c0-.521.429-.946.956-.946h3.913v16.524h-3.913zM74 38.02h-.956v-5.336c0-2.705-2.224-4.905-4.957-4.905h-3.913v-3.873c0-2.705-2.224-4.906-4.956-4.906h-8.87c-2.733 0-4.956 2.201-4.956 4.906v15.578H34.609V23.906c0-2.705-2.224-4.906-4.957-4.906h-8.869c-2.733 0-4.957 2.201-4.957 4.906v3.873h-3.913c-2.733 0-4.956 2.2-4.956 4.905v5.336H6c-1.104 0-2 .887-2 1.98s.896 1.979 2 1.979h.957v5.337c0 2.704 2.223 4.905 4.956 4.905h3.913v3.873C15.826 58.8 18.05 61 20.783 61h8.869c2.733 0 4.957-2.2 4.957-4.906V43.443h10.783v12.65c0 2.707 2.223 4.907 4.956 4.907h8.87c2.732 0 4.956-2.2 4.956-4.906V52.22h3.913c2.733 0 4.957-2.201 4.957-4.905v-5.337H74c1.105 0 2-.886 2-1.98 0-1.092-.895-1.979-2-1.979z"/>
    </g>
</svg>
