<svg xmlns="http://www.w3.org/2000/svg" width="80" height="80" viewBox="0 0 80 80">
    <g fill="none" fill-rule="evenodd">
        <path d="M0 0H80V80H0z"/>
        <path fill="#535C65" d="M40.423 10.15l8.588 8.59h-8.588v-8.59zm19.884 26.455c3.076 0 6.088 1.247 8.262 3.423l7.86 7.858c.366.365.57.861.57 1.377s-.204 1.012-.57 1.376l-5.842 5.843c-.76.761-1.992.761-2.753 0l-1.545-1.544v18.667c0 1.075-.871 1.947-1.947 1.947H40.974c-1.075 0-1.948-.872-1.948-1.947V54.938l-1.544 1.544c-.76.761-1.994.761-2.753 0l-5.843-5.843c-.76-.76-.76-1.992 0-2.753l7.858-7.858c2.207-2.207 5.142-3.423 8.26-3.423zM45.125 40.5h-.12c-2.08 0-4.035.811-5.507 2.283l-6.48 6.481 3.088 3.088 3.49-3.49c.558-.559 1.396-.724 2.123-.424.727.302 1.202 1.012 1.202 1.8v21.421h19.474v-21.42c0-.789.474-1.499 1.202-1.8.728-.303 1.564-.137 2.122.422l3.492 3.491 3.088-3.088-6.483-6.48c-1.45-1.452-3.46-2.284-5.51-2.284h-.115c-.868 3.355-3.912 5.842-7.533 5.842-3.622 0-6.665-2.487-7.533-5.842zm-6.65-37c.131 0 .26.015.386.04.08.016.154.045.23.07.044.015.09.023.134.04.078.035.151.079.224.12.037.022.076.038.111.06.092.064.177.136.257.213.011.01.025.018.036.029L55.067 19.29c.28.27.48.622.558 1.02.01.046.008.095.014.142.01.078.025.155.025.236V32.88c0 1.075-.872 1.947-1.949 1.947-1.075 0-1.947-.872-1.947-1.947V22.635H38.475c-1.075 0-1.947-.872-1.947-1.947V7.395H6.894V67.51h27.01c1.075 0 1.947.87 1.947 1.947 0 1.075-.872 1.947-1.948 1.947H4.947C3.872 71.404 3 70.532 3 69.457V5.447C3 4.372 3.872 3.5 4.947 3.5zM17.483 33.685c1.076 0 1.948.872 1.948 1.948v1.507c2.743.836 4.746 3.39 4.746 6.404 0 1.075-.872 1.947-1.947 1.947-1.076 0-1.948-.872-1.948-1.947 0-1.543-1.255-2.8-2.799-2.8-1.543 0-2.799 1.257-2.799 2.8s1.256 2.799 2.8 2.799c3.69 0 6.693 3.003 6.693 6.694 0 3.014-2.003 5.567-4.746 6.403v1.508c0 1.075-.872 1.947-1.948 1.947-1.075 0-1.947-.872-1.947-1.947v-1.508c-2.744-.836-4.747-3.389-4.747-6.403 0-1.075.872-1.947 1.947-1.947 1.076 0 1.948.872 1.948 1.947 0 1.543 1.256 2.8 2.8 2.8 1.543 0 2.798-1.257 2.798-2.8s-1.255-2.799-2.799-2.799c-3.69 0-6.694-3.003-6.694-6.694 0-3.014 2.003-5.568 4.747-6.404v-1.507c0-1.076.872-1.948 1.947-1.948zm38.528 6.815h-6.706c.676 1.16 1.918 1.948 3.353 1.948 1.435 0 2.677-.789 3.353-1.948zM26.369 23.947c1.075 0 1.947.872 1.947 1.948 0 1.075-.872 1.947-1.947 1.947H12.737c-1.075 0-1.947-.872-1.947-1.947 0-1.076.872-1.948 1.947-1.948zm4.868-10.71c1.075 0 1.947.872 1.947 1.947 0 1.076-.872 1.948-1.947 1.948h-18.5c-1.075 0-1.948-.872-1.948-1.948 0-1.075.873-1.947 1.948-1.947z"/>
    </g>
</svg>
