<svg xmlns="http://www.w3.org/2000/svg" width="180" height="166" viewBox="0 0 180 166">
    <path fill="#25292D" fill-opacity=".1" fill-rule="evenodd" d="M43.778 21.26c-2.139 9.485-2.528 19.79-8.049 27.797C29.077 58.66 16.67 62.47 8.58 70.867c-10.5 10.964-11.51 29.74-2.215 41.74 5.1 6.611 12.483 10.925 18.94 16.211 12.407 10.225 21.677 24.455 35.9 31.997 15.285 8.087 35.198 6.608 49.121-3.693 12.719-9.409 20.226-24.996 33.875-32.968 6.768-3.964 14.705-5.831 21.236-10.225 10.27-6.92 15.754-19.98 14.345-32.267-1.41-12.286-9.295-23.483-19.993-29.74-6.101-3.547-13.564-6.096-16.793-12.389-2.684-5.21-1.632-11.429-2.527-17.206-.936-5.728-3.808-10.962-8.138-14.828C122.997-.744 109.06-.86 96.744.929c-12.317 1.787-24.465.35-36.02 1.274-10.137.902-14.69 9.106-16.946 19.057z"/>
</svg>
