<svg xmlns="http://www.w3.org/2000/svg" width="80" height="80" viewBox="0 0 80 80">
    <g fill="none" fill-rule="evenodd">
        <path d="M0 0H80V80H0z"/>
        <g>
            <path fill="#EBF3FF" d="M43 8H15c-3.866 0-7 3.07-7 6.857v50.286C8 68.93 11.134 72 15 72h28c3.866 0 7-3.07 7-6.857V14.857C50 11.07 46.866 8 43 8z" transform="translate(17 4)"/>
            <path fill="#267FFD" d="M38.333 0H7.667C3.432 0 0 3.454 0 7.714v56.572C0 68.546 3.432 72 7.667 72h30.666C42.568 72 46 68.546 46 64.286V7.714C46 3.454 42.568 0 38.333 0zM6.714 4h32.572C40.785 4 42 5.186 42 6.65V57H4V6.65C4 5.186 5.215 4 6.714 4zM42 64.5c0 1.933-1.215 3.5-2.714 3.5H6.714C5.215 68 4 66.433 4 64.5V61h38v3.5z" transform="translate(17 4)"/>
            <path fill="#267FFD" d="M28 40c1.105 0 2 .895 2 2v1h4c1.105 0 2 .895 2 2s-.895 2-2 2h-4v1c0 1.105-.895 2-2 2s-2-.895-2-2v-1H12c-1.105 0-2-.895-2-2s.895-2 2-2h14v-1c0-1.105.895-2 2-2zM18 24c1.105 0 2 .895 2 2v1h14c1.105 0 2 .895 2 2s-.895 2-2 2H20v1c0 1.105-.895 2-2 2s-2-.895-2-2v-1h-4c-1.105 0-2-.895-2-2s.895-2 2-2h4v-1c0-1.105.895-2 2-2zm16-13c1.105 0 2 .895 2 2s-.895 2-2 2h-6c-1.105 0-2-.895-2-2s.895-2 2-2h6z" transform="translate(17 4)"/>
        </g>
    </g>
</svg>
