<svg xmlns="http://www.w3.org/2000/svg" width="48" height="48" viewBox="0 0 48 48">
    <g fill="none" fill-rule="evenodd">
        <path fill="#535C65" stroke="#535C65" stroke-width=".5" d="M14.856 7.775c1.17.292 2.123 1.067 2.636 2.123.37.627.972 1.562 1.56 2.477.745 1.158 1.211 1.885 1.494 2.364.964 1.64-.691 4.993-1.195 5.911.089.688 1.697 2.99 3.353 4.647 1.657 1.658 3.957 3.262 4.647 3.353 1.103-.598 4.318-2.13 5.91-1.195.536.316 1.382.861 2.278 1.438.985.633 1.934 1.244 2.566 1.616 1.054.514 1.828 1.467 2.114 2.605.13 1.056-.216 2.083-.936 2.823-1.143 1.357-3.685 4.313-6.414 4.313-.274 0-.547-.029-.814-.087-3.47-.762-10.477-4.74-14.977-9.24S8.6 19.416 7.838 15.945c-.264-1.2.093-2.383.73-3.457.975-1.64 2.601-3.016 3.499-3.772.739-.72 1.765-1.066 2.79-.94zm-.458 1.847c-.415.042-.804.225-1.124.537-.695.586-2.092 1.762-2.947 3.07-.496.756-.818 1.56-.653 2.312.626 2.852 4.256 9.575 8.734 14.051 4.478 4.476 11.2 8.107 14.051 8.733.755.165 1.56-.158 2.319-.655 1.31-.859 2.488-2.26 3.09-2.974.34-.327.522-.786.498-1.257-.113-.607-.815-1.07-1.208-1.3-.675-.4-1.673-1.04-2.682-1.692-.86-.554-1.67-1.075-2.169-1.369-.552-.324-2.429.304-4.145 1.274-.637.36-1.64.09-2.716-.523-1.81-1.031-3.787-2.922-4.103-3.231-.273-.28-2.165-2.255-3.188-4.065-.603-1.066-.866-2.061-.507-2.696.97-1.716 1.598-3.592 1.274-4.144-.29-.492-.8-1.284-1.407-2.228h0l-.37-.575-.184-.286c-.425-.663-.821-1.291-1.098-1.762-.232-.395-.7-1.088-1.465-1.22zm13.376-1.378c3.135.004 5.972 1.275 8.027 3.33 2.055 2.055 3.326 4.892 3.33 8.027 0 .26-.106.495-.276.665-.17.17-.406.276-.665.276-.26 0-.496-.106-.666-.276-.17-.17-.276-.405-.276-.665-.002-2.615-1.063-4.982-2.778-6.696-1.714-1.715-4.08-2.776-6.696-2.779-.26 0-.495-.105-.665-.275-.17-.17-.276-.406-.276-.666s.105-.495.276-.665c.17-.17.405-.276.665-.276zm0 5.529c1.609.002 3.065.654 4.12 1.709 1.053 1.054 1.706 2.51 1.708 4.119 0 .26-.106.495-.276.665-.17.17-.406.276-.666.276s-.495-.106-.665-.276c-.17-.17-.276-.405-.276-.665 0-1.09-.443-2.075-1.156-2.789-.714-.714-1.7-1.156-2.789-1.157-.26 0-.495-.105-.665-.276-.17-.17-.276-.405-.276-.665s.105-.495.276-.666c.17-.17.405-.275.665-.275z"/>
    </g>
</svg>
