<svg xmlns="http://www.w3.org/2000/svg" width="24" height="24" viewBox="0 0 24 24">
    <g fill="none" fill-rule="evenodd">
        <path fill="#34B4A9" stroke="#34B4A9" stroke-width=".5" d="M19.988 16.587c-.134-.535-.499-.982-.995-1.223-.324-.19-.816-.507-1.291-.812-.446-.288-.868-.56-1.135-.717-.808-.475-2.476.4-2.863.617h0c-.315 0-1.555-.83-2.44-1.715-.885-.886-1.717-2.128-1.715-2.44.216-.388 1.092-2.055.616-2.864-.158-.268-.431-.691-.72-1.142-.305-.473-.62-.961-.81-1.284-.24-.496-.687-.86-1.222-.995-.476-.059-.954.103-1.296.44-.718.604-2.4 2.02-2.076 3.494.378 1.722 2.355 5.195 4.586 7.427 2.232 2.232 5.706 4.209 7.427 4.586.125.028.252.041.38.041 1.333 0 2.563-1.46 3.116-2.117.335-.343.496-.82.438-1.296zm-.967.851c-.48.57-1.752 2.08-2.818 1.846-1.437-.315-4.83-2.142-7.087-4.4-2.259-2.257-4.085-5.649-4.4-7.086C4.48 6.732 5.993 5.458 6.56 4.98c.174-.17.4-.274.642-.295.031 0 .062.003.092.008.342.058.613.441.744.665.197.334.516.829.824 1.307.285.444.555.862.706 1.118.17.29-.115 1.275-.636 2.197-.493.873 1.818 3.222 1.841 3.245.024.024 2.375 2.333 3.245 1.842.922-.52 1.908-.806 2.198-.636.255.15.67.418 1.11.701.482.311.98.63 1.315.83.224.13.607.402.665.743.017.274-.088.543-.287.733h0zM13.54 4.593c0-.191.155-.346.346-.346 3.066.003 5.55 2.488 5.553 5.553 0 .191-.154.346-.345.346-.191 0-.346-.155-.346-.346-.003-2.684-2.178-4.859-4.862-4.862-.19 0-.345-.155-.345-.345zm0 2.764c0-.19.155-.346.346-.346 1.54.002 2.787 1.25 2.789 2.79 0 .19-.155.345-.346.345-.19 0-.345-.155-.345-.346-.001-1.158-.94-2.096-2.098-2.097-.19 0-.345-.155-.345-.346z"/>
    </g>
</svg>
