<svg xmlns="http://www.w3.org/2000/svg" width="80" height="80" viewBox="0 0 80 80">
    <g fill="none" fill-rule="evenodd">
        <path d="M0 0H80V80H0z"/>
        <g>
            <path fill="#EBF3FF" d="M21.5 23v28h-4.206c-.807 2.892-3.32 5-6.294 5-2.974 0-5.487-2.108-6.294-5H.5V40.216c0-1.49 1.133-2.698 2.53-2.698h.517l2.668-9.174c-1.066-.28-1.817-1.299-1.82-2.47v-.323C4.4 24.144 5.468 23.004 6.788 23H21.5zm34.575-8.538c.558 0 1.016.544 1.072 1.243l.005.141v8.77h2.828c1.02 0 1.846.826 1.846 1.846S61 28.308 59.98 28.308h-2.828v1.846h7.502c1.02 0 1.846.826 1.846 1.846s-.827 1.846-1.846 1.846h-7.502v15.23c0 .718-.424 1.307-.967 1.378l-.11.008h-5.533C50.09 53.592 47.362 56 44.065 56c-3.296 0-6.023-2.407-6.477-5.538h-13.01c-.558 0-1.017-.545-1.072-1.244l-.006-.141v-33.23c0-.718.424-1.307.967-1.378l.11-.007h31.498zm-12.01 32.307l-.17.005c-1.413.085-2.544 1.216-2.629 2.629l-.005.17v.063c.005.142.018.277.042.406.015.085.038.176.067.272l.05.148c.386 1.075 1.424 1.846 2.645 1.846s2.26-.77 2.645-1.846h.006c.047-.14.082-.28.107-.42.016-.093.028-.194.037-.301l.01-.168-.006-.17c-.084-1.413-1.215-2.544-2.628-2.629l-.17-.005zM10.5 47c-.642 0-1.237.202-1.724.545-.353.44-.562.986-.562 1.58 0 .306.056.601.16.875h-.028c.387 1.165 1.43 2 2.654 2 1.063 0 1.99-.63 2.468-1.557.021-.145.032-.293.032-.443 0-1.657-1.343-3-3-3zM55.306 8c1.02 0 1.846.827 1.846 1.846 0 1.02-.826 1.846-1.846 1.846h-9.395c-1.02 0-1.846-.826-1.846-1.846S44.892 8 45.911 8h9.395zm7.478 0c1.02 0 1.846.827 1.846 1.846 0 1.02-.826 1.846-1.846 1.846h-2.85c-1.02 0-1.847-.826-1.847-1.846S58.914 8 59.933 8h2.851z" transform="matrix(-1 0 0 1 79.5 14)"/>
            <path fill="#267FFD" d="M12.671 46.002C13.084 47.166 14.194 48 15.5 48c1.306 0 2.416-.834 2.829-1.998h4.1C21.943 49.391 19.026 52 15.5 52c-3.526 0-6.443-2.607-6.929-5.999h4.1zM63.847 7c.6 0 1.092.595 1.148 1.356L65 8.5V18h3c1.105 0 2 .895 2 2s-.895 2-2 2h-3v2h8c1.105 0 2 .895 2 2s-.895 2-2 2h-8v16.5c0 .78-.457 1.42-1.042 1.493l-.11.007-5.919.001C57.443 49.393 54.526 52 51 52c-3.526 0-6.443-2.607-6.929-5.999L30.153 46c-.6 0-1.092-.595-1.148-1.356L29 44.5v-36c0-.78.457-1.42 1.042-1.493l.11-.007h33.695zM51 42c-1.598 0-2.904 1.249-2.995 2.824L48 45v.105c.005.154.02.3.045.44.016.093.04.191.072.295l.053.16c.413 1.166 1.524 2 2.83 2s2.417-.834 2.829-2h.007c.05-.152.088-.304.114-.455.017-.1.03-.21.04-.326l.01-.181V45c0-1.657-1.343-3-3-3zM27 16v30h-4.57l-.001.001h-4.1l.054-.17.025-.092.019-.076-.019.076c.014-.055.027-.11.037-.166l-.018.09c.015-.07.029-.142.04-.215l-.022.125c.012-.061.022-.123.03-.185l-.008.06c.01-.063.017-.126.022-.19l-.014.13c.008-.065.015-.13.019-.196l-.005.066c.007-.085.011-.171.011-.258 0-1.598-1.249-2.904-2.824-2.995L15.5 42c-1.657 0-3 1.343-3 3l.006.193.005.065c.004.044.008.087.014.13l-.014-.13c.005.064.013.127.022.19l-.008-.06c.008.062.018.124.03.185l-.022-.125c.011.073.025.144.04.215l-.018-.09c.01.056.023.111.037.166l-.018-.076c.012.057.027.113.043.169l-.025-.093c.022.089.049.176.079.262h-4.1V46H4V34.446c0-1.597 1.24-2.89 2.771-2.89h.566l2.923-9.83c-1.168-.3-1.99-1.392-1.994-2.646v-.347c.004-1.508 1.175-2.729 2.62-2.733H27zm-4 19.5H8.439c-.24 0-.435.166-.439.374V42h1.174c1.124-2.365 3.534-4 6.326-4 2.786 0 5.192 1.628 6.319 3.984L23 41.983V35.5zM61 12l-28 .051V42l11.686-.026C45.815 39.624 48.218 38 51 38c2.771 0 5.166 1.61 6.3 3.946l3.67-.008L61 12zM47 32c1.105 0 2 .895 2 2s-.895 2-2 2H37c-1.105 0-2-.895-2-2s.895-2 2-2h10zM22.99 20H14.3l-2.905 11.54H23L22.99 20zM41 26c1.105 0 2 .895 2 2s-.895 2-2 2h-4c-1.105 0-2-.895-2-2s.895-2 2-2h4zM63 0c1.105 0 2 .895 2 2s-.895 2-2 2H53c-1.105 0-2-.895-2-2s.895-2 2-2h10zm8 0c1.105 0 2 .895 2 2s-.895 2-2 2h-3c-1.105 0-2-.895-2-2s.895-2 2-2h3z" transform="matrix(-1 0 0 1 79.5 14)"/>
        </g>
    </g>
</svg>
