<svg xmlns="http://www.w3.org/2000/svg" width="80" height="80" viewBox="0 0 80 80">
    <g fill="none" fill-rule="evenodd">
        <path d="M0 0H80V80H0z"/>
        <g fill="#535C65">
            <path d="M8.671 46.002C9.084 47.166 10.194 48 11.5 48c1.306 0 2.416-.834 2.829-1.998h4.1C17.943 49.391 15.026 52 11.5 52c-3.526 0-6.443-2.607-6.929-5.999h4.1zM23 16v30h-4.57l-.001.001h-4.1l.054-.17.025-.092.019-.076-.019.076c.014-.055.027-.11.037-.166l-.018.09c.015-.07.029-.142.04-.215l-.022.125c.012-.061.022-.123.03-.185l-.008.06c.01-.063.017-.126.022-.19l-.014.13c.008-.065.015-.13.019-.196l-.005.066c.007-.085.011-.171.011-.258 0-1.598-1.249-2.904-2.824-2.995L11.5 42c-1.657 0-3 1.343-3 3l.006.193.005.065c.004.044.008.087.014.13l-.014-.13c.005.064.013.127.022.19l-.008-.06c.008.062.018.124.03.185l-.022-.125c.011.073.025.144.04.215l-.018-.09c.01.056.023.111.037.166l-.018-.076c.012.057.027.113.043.169l-.025-.093c.022.089.049.176.079.262h-4.1V46H0V34.446c0-1.597 1.24-2.89 2.771-2.89h.566l2.923-9.83c-1.168-.3-1.99-1.392-1.994-2.646v-.347c.004-1.508 1.175-2.729 2.62-2.733H23zm-4 19.5H4.439c-.24 0-.435.166-.439.374V42h1.174c1.124-2.365 3.534-4 6.326-4 2.786 0 5.192 1.628 6.319 3.984L19 41.983V35.5zM18.99 20H10.3L7.395 31.54H19L18.99 20zM59.847 7C60.484 7 61 7.672 61 8.5v36c0 .828-.516 1.5-1.153 1.5l-5.918.001C53.443 49.393 50.526 52 47 52c-3.526 0-6.443-2.607-6.929-5.999L26.153 46C25.516 46 25 45.328 25 44.5v-36c0-.828.516-1.5 1.153-1.5zM49.836 46c.05-.152.088-.304.114-.455.026-.15.042-.32.05-.507V45c0-1.657-1.343-3-3-3s-3 1.343-3 3v.105c.005.154.02.3.045.44.025.14.066.291.125.455.413 1.166 1.524 2 2.83 2s2.417-.834 2.829-2zM61 18h3c1.105 0 2 .895 2 2s-.895 2-2 2h-3v-4zm0 6h8c1.105 0 2 .895 2 2s-.895 2-2 2h-8v-4zm-4-12l-.03 29.938-3.67.008C52.167 39.61 49.772 38 47 38c-2.782 0-5.185 1.623-6.314 3.974L29 42V12.051L57 12zM49 0h10c1.105 0 2 .895 2 2s-.895 2-2 2H49c-1.105 0-2-.895-2-2s.895-2 2-2zM33 32h10c1.105 0 2 .895 2 2s-.895 2-2 2H33c-1.105 0-2-.895-2-2s.895-2 2-2zm0-6h4c1.105 0 2 .895 2 2s-.895 2-2 2h-4c-1.105 0-2-.895-2-2s.895-2 2-2zM64 0h3c1.105 0 2 .895 2 2s-.895 2-2 2h-3c-1.105 0-2-.895-2-2s.895-2 2-2z" transform="matrix(-1 0 0 1 75.5 14)"/>
        </g>
    </g>
</svg>
