<svg xmlns="http://www.w3.org/2000/svg" width="80" height="80" viewBox="0 0 80 80">
    <g fill="none" fill-rule="evenodd">
        <path d="M0 0H80V80H0z"/>
        <g>
            <path fill="#25292D" fill-opacity=".1" d="M69.697 32.396l-8.008-14.194C61.304 17.45 60.534 17 59.687 17h-34.57c-.77 0-1.54.45-2.002 1.127l-8.778 14.27c-.462.75-.462 1.727.077 2.478l26.487 35.374c.308.45.847.751 1.463.751.538 0 1.077-.3 1.385-.751l25.794-35.45c.539-.75.616-1.652.154-2.403z" transform="translate(6 4)"/>
            <path fill="#FFF" fill-rule="nonzero" d="M55.839 64.903l-1.742.968c-.13.064-.13.194 0 .258l1.742.968.064.064.968 1.742c.064.13.194.13.258 0l.968-1.742.064-.064 1.742-.968c.13-.064.13-.194 0-.258l-1.742-.968-.064-.064-.968-1.742c-.064-.13-.194-.13-.258 0l-1.032 1.806c.064-.064.064-.064 0 0zM5.067 3.151l-2.94 1.597c-.169.084-.169.336 0 .504l2.94 1.597c.084 0 .084.084.084.084l1.597 2.94c.084.169.336.169.504 0l1.597-2.94c0-.084.084-.084.084-.084l2.94-1.597c.169-.084.169-.336 0-.504L8.934 3.15c-.084 0-.084-.084-.084-.084L7.252.127c-.084-.169-.336-.169-.504 0L5.15 3.066s0 .084-.084.084zM10.453 63.528l-2.34 1.283c-.15.076-.15.302 0 .378l2.34 1.283.075.075 1.283 2.34c.076.15.302.15.378 0l1.283-2.34.075-.075 2.34-1.283c.15-.076.15-.302 0-.378l-2.34-1.283-.075-.075-1.283-2.34c-.076-.15-.302-.15-.378 0l-1.283 2.34c-.075 0-.075.075-.075.075zM63.791 55.878l-1.726.95c-.087.086-.087.258 0 .345l1.726.95s.087 0 .087.086l.95 1.726c.086.087.258.087.345 0l.95-1.726s0-.087.086-.087l1.726-.95c.087-.086.087-.258 0-.345l-1.726-.95s-.087 0-.087-.086l-.95-1.726c-.086-.087-.258-.087-.345 0l-1.036 1.813c0-.087 0 0 0 0zM1.791 15.878l-1.726.95c-.087.086-.087.258 0 .345l1.726.95s.087 0 .087.086l.95 1.726c.086.087.258.087.345 0l.95-1.726s0-.087.086-.087l1.726-.95c.087-.086.087-.258 0-.345l-1.726-.95s-.087 0-.087-.086l-.95-1.726c-.086-.087-.258-.087-.345 0l-1.036 1.813c.087-.087.087-.087 0 0zM63.791 4.878l-1.726.95c-.087.086-.087.258 0 .345l1.726.95s.087 0 .087.086l.95 1.726c.086.087.258.087.345 0l.95-1.726s0-.087.086-.087l1.726-.95c.087-.086.087-.258 0-.345l-1.726-.95s-.087 0-.087-.086l-.95-1.726c-.086-.087-.258-.087-.345 0l-1.036 1.813c.087-.087.087-.087 0 0zM64.664 28.107L55.8 12.335C55.373 11.501 54.52 11 53.582 11H15.308c-.853 0-1.705.5-2.217 1.252L3.374 28.107c-.512.835-.512 1.92.085 2.754l29.324 39.305c.34.5.938.834 1.62.834.596 0 1.193-.334 1.534-.834l28.557-39.389c.596-.834.682-1.835.17-2.67zm-3.836 0H49.064l4.774-12.267 6.99 12.267zM44.478 32L34.46 61l-9.38-29h19.397zm-20.22-3.893l9.705-12.085 9.705 12.085h-19.41zM37.301 15h13.103L46.19 25.388 37.3 15zM21.7 25.95L17.183 15H30.65L21.7 25.95zm7.8 33.054L8.637 32h12.127l8.739 27.004zM48.213 32h11.275L39.16 59.033 48.212 32zM14.277 15.722l4.549 12.385H7.38l6.897-12.385z" transform="translate(6 4)"/>
        </g>
    </g>
</svg>
