<svg xmlns="http://www.w3.org/2000/svg" width="80" height="80" viewBox="0 0 80 80">
    <g fill="none" fill-rule="evenodd">
        <path d="M0 0H80V80H0z"/>
        <path fill="#535C65" stroke="#535C65" d="M65.383 56.984c-6.026 7.867-14.06 12.354-23.817 13.839-2.31.35-4.533-.166-6.736-.7C20.576 66.669 9.972 55.267 7.555 40.815c-.491-2.933-.584-5.89-.317-8.99 1.002.171 1.967.286 2.907.502 12.84 2.951 21.708 10.572 26.564 22.796.79 1.99 1.184 4.143 1.72 6.231.212.83.773 1.4 1.543 1.396.794-.003 1.386-.538 1.555-1.37 2.55-12.546 9.634-21.518 21.278-26.85 2.993-1.371 6.17-2.165 9.428-2.628.129-.018.26-.015.488-.027.035.303.075.543.088.783.482 9.011-1.934 17.158-7.426 24.326m8.56-28.352c.91-.131 1.56.437 1.71 1.463.392 2.66.432 5.335.219 8.008-.651 8.174-3.623 15.46-8.788 21.78-5.39 6.598-12.296 10.969-20.567 13.087-1.893.486-3.84.909-5.78 1.013-1.687.09-3.424-.188-5.097-.518-15.922-3.14-28.178-15.653-31.044-31.639-.69-3.845-.776-7.71-.283-11.586.155-1.217.786-1.681 2.076-1.562 9.6.878 17.774 4.818 24.54 11.624 3.978 4.003 6.892 8.728 8.832 14.038.06.167.123.333.205.553.646-1.497 1.179-2.94 1.87-4.306 5.608-11.07 14.424-18.14 26.504-21.059 1.833-.442 3.73-.626 5.603-.896zM38.763 6.589c.794-.77 1.692-.793 2.476-.023C47.958 13.17 52.21 21.082 53.84 30.379c.085.483.182.966.222 1.453.076.926-.53 1.67-1.38 1.744-.885.078-1.545-.492-1.68-1.42-1.225-8.407-4.723-15.726-10.516-21.946-.15-.16-.236-.382-.366-.598-1.934 1.932-3.481 3.883-4.862 5.97-3.298 4.983-5.356 10.438-6.213 16.349-.142.978-.464 1.413-1.178 1.579-1.153.267-2.104-.52-1.89-1.719.403-2.232.789-4.483 1.437-6.65 2.14-7.171 5.975-13.34 11.349-18.552z"/>
    </g>
</svg>
