<svg xmlns="http://www.w3.org/2000/svg" width="80" height="80" viewBox="0 0 80 80">
    <g fill="none" fill-rule="evenodd">
        <path d="M0 0H80V80H0z"/>
        <g>
            <path fill="#25292D" fill-opacity=".1" d="M34.276 42.299l9.448 7.423c.282.209.564.278.846.278.282 0 .635-.07.847-.278l9.448-7.492C58.038 39.455 61 36.263 61 31.545c0-.395-.027-3.305-1.42-5.563-1.296-2.1-3.952-3.566-4.292-3.733C53.737 21.416 51.904 21 50.141 21c-2.045 0-3.949.555-5.641 1.596C42.808 21.555 40.833 21 38.859 21 32.865 21 28 25.787 28 31.684c.07 4.58 3.032 7.77 6.276 10.615zm27.15 15.384L49.96 66.472c-1.399 1.063-2.867 1.984-4.335 2.764-1.048.567-1.468.709-1.747.78l-.14.07c-1.188.284-2.237.426-5.942-.85-3.775-1.347-7.83-2.48-7.83-2.552l-.21-.07-.14-.072s-1.257-.637-3.844.993c-2.097 1.346-4.474 2.906-6.082 3.969-.49.283-.978.496-1.538.496-.28 0-.559-.07-.839-.142-.838-.212-1.468-.85-1.747-1.63L11.233 59.88c-.63-1.418.07-3.119 1.468-3.686l11.185-4.82c1.538-.637 3.075-1.063 4.544-1.275 1.328-.142 2.446-.142 3.425.07 2.307.568 5.033 1.702 5.522 1.914l2.307.71c.07 0 1.678.566 3.356-.072 1.608-.638 3.285-.141 4.823 1.276.14.142.28.284.35.425l9.857-4.252h.14c1.607-.213 4.124.283 4.613 2.835.63 2.41-.559 4.11-1.398 4.678z" transform="translate(4 4)"/>
            <path fill="#FFF" fill-rule="nonzero" d="M52.4 20.72c-.48-.72-.32-1.68.4-2.24.72-.48 1.68-.32 2.24.4.32.48.64 1.04.96 1.52.4.8.08 1.76-.72 2.16-.24.08-.48.16-.72.16-.56 0-1.12-.32-1.44-.88-.24-.4-.48-.72-.72-1.12zM26.88 38.4l10.72 8.56c.32.24.64.32.96.32.32 0 .72-.08.96-.32l10.72-8.64c3.6-3.2 6.96-6.88 6.96-12.32 0-.88-.72-1.6-1.6-1.6-.88 0-1.6.72-1.6 1.6 0 4-2.24 6.72-5.84 9.92l-9.68 7.76L28.8 36c-3.6-3.2-5.84-5.92-5.84-9.92 0-5.04 4.08-9.12 9.12-9.12 2 0 3.84.64 5.44 1.84.56.4 1.36.4 1.92 0 1.6-1.2 3.44-1.84 5.44-1.84 1.52 0 3.04.4 4.32 1.12.8.4 1.76.16 2.16-.64.4-.8.16-1.76-.64-2.16-1.76-.96-3.84-1.44-5.84-1.44-2.32 0-4.48.64-6.4 1.84-1.92-1.2-4.16-1.84-6.4-1.84-6.8 0-12.32 5.52-12.32 12.32.08 5.28 3.44 8.96 7.12 12.24zM58.4 55.52l-13.12 9.92c-1.6 1.2-3.28 2.24-4.96 3.12-1.2.64-1.68.8-2 .88l-.16.08c-1.36.32-2.56.48-6.8-.96-4.32-1.52-8.96-2.8-8.96-2.88l-.24-.08-.16-.08s-1.44-.72-4.4 1.12c-2.4 1.52-5.12 3.28-6.96 4.48-.56.32-1.12.56-1.76.56-.32 0-.64-.08-.96-.16-.96-.24-1.68-.96-2-1.84L.96 58c-.72-1.6.08-3.52 1.68-4.16l12.8-5.44c1.76-.72 3.52-1.2 5.2-1.44 1.52-.16 2.8-.16 3.92.08 2.64.64 5.76 1.92 6.32 2.16l2.64.8c.08 0 1.92.64 3.84-.08 1.84-.72 3.76-.16 5.52 1.44.16.16.32.32.4.48l11.28-4.8h.16c1.84-.24 4.72.32 5.28 3.2.72 2.72-.64 4.64-1.6 5.28zM12.64 66.08L8 55.04l-4.08 1.68 4.96 11.76c1.04-.64 2.32-1.52 3.76-2.4zm44.32-15.2c-.16-.72-1.12-.8-1.52-.72l-11.2 4.72c0 .16-.08.4-.16.56-.24.88-1.44 1.92-1.6 2.16-1.2 1.04-2.8 1.84-3.2 2-.48.24-3.04 1.52-5.28 1.2-2.08-.24-6.4-1.36-6.56-1.44-.88-.24-1.36-1.12-1.12-2 .24-.88 1.12-1.36 1.92-1.12.08 0 4.32 1.12 6.08 1.36 1.2.16 2.96-.64 3.44-.88l.08-.08c.4-.16 1.68-.8 2.4-1.52.24-.16.56-.56.72-.8v-.08c-.08-.08-.08-.24-.08-.4-.08-.16-.16-.24-.24-.32-.56-.56-1.44-1.12-2.24-.8-3.04 1.2-5.92.16-6 .16l-2.88-.96s-3.28-1.44-5.84-2c-.4-.08-.8-.08-1.28-.08s-.96 0-1.52.08c-1.44.16-2.88.64-4.32 1.2L10.8 53.6l4.48 10.56c.16-.08.4-.24.56-.32 4-2.48 6.64-1.68 7.52-1.28.8.24 5.04 1.44 8.96 2.8 3.68 1.28 4.32 1.04 4.96.88l.24-.08s.32-.08 1.28-.64c1.52-.8 3.04-1.76 4.48-2.88l13.12-9.92c.16.16.88-.48.56-1.84zm12.72-23.36h-6.4c-.88 0-1.6.72-1.6 1.6 0 .88.72 1.6 1.6 1.6h6.4c.88 0 1.6-.72 1.6-1.6 0-.88-.72-1.6-1.6-1.6zM57.2 14.72c.48 0 .88-.16 1.2-.56l4.24-4.8c.56-.64.48-1.68-.16-2.24-.64-.56-1.68-.48-2.24.16L56 12c-.56.64-.48 1.68.16 2.24.24.32.64.48 1.04.48zm-18.72-4.8c.88 0 1.6-.72 1.6-1.6v-6.4c0-.88-.72-1.6-1.6-1.6-.88 0-1.6.72-1.6 1.6v6.4c0 .88.72 1.6 1.6 1.6zm-31.2 20.8h6.4c.88 0 1.6-.72 1.6-1.6 0-.88-.72-1.6-1.6-1.6h-6.4c-.88 0-1.6.72-1.6 1.6 0 .88.72 1.6 1.6 1.6zm11.36-16.56c.32.32.72.56 1.2.56.4 0 .72-.16 1.04-.4.64-.56.72-1.6.16-2.24L16.8 7.2c-.56-.64-1.6-.72-2.24-.16-.64.56-.72 1.6-.16 2.24l4.24 4.88z" transform="translate(4 4)"/>
        </g>
    </g>
</svg>
